<svg width="17" height="11" viewBox="0 0 17 11" fill="none" xmlns="http://www.w3.org/2000/svg">
<path fill-rule="evenodd" clip-rule="evenodd" d="M5.85407 9.86775C5.66949 10.0584 5.41687 10.1678 5.15173 10.1719C4.8866 10.1761 4.63068 10.0746 4.44024 9.88985L0.378135 5.94784C0.187752 5.76303 0.0784708 5.51008 0.0743216 5.24462C0.0701723 4.97916 0.171494 4.72291 0.356008 4.53224L4.29293 0.465213C4.47866 0.279902 4.72965 0.175046 4.99185 0.173229C5.25405 0.171413 5.50648 0.27278 5.69477 0.4555C5.88305 0.63822 5.99213 0.887672 5.99851 1.15013C6.0049 1.41259 5.90807 1.66705 5.72888 1.85871L3.47204 4.19014L15.0566 4.00907C15.3218 4.00492 15.5778 4.10642 15.7682 4.29124C15.9587 4.47606 16.068 4.72905 16.0722 4.99457C16.0763 5.26008 15.9749 5.51637 15.7904 5.70705C15.6058 5.89773 15.3531 6.00718 15.0879 6.01132L3.50334 6.1924L5.83194 8.45215C6.02232 8.63696 6.1316 8.88991 6.13575 9.15537C6.1399 9.42084 6.03858 9.67708 5.85407 9.86775Z" fill="black"/>
</svg>
