<svg width="34" height="33" viewBox="0 0 34 33" fill="none" xmlns="http://www.w3.org/2000/svg">
<path d="M28.9024 4.38634C26.5164 2.14583 23.3612 0.709233 19.953 0.311459C15.0716 -0.271739 7.93939 3.05228 4.52334 6.25137C2.60428 8.05259 0.161723 10.3703 0.264415 16.6047C0.33007 20.5906 2.12357 25.2452 5.14004 27.9561C7.58561 30.1986 10.5928 31.5205 14.0915 32.0363C20.7138 33.0137 25.8668 29.2622 29.1948 26.1619C31.1141 24.3713 33.8626 20.87 33.7971 16.8965C33.7095 11.9306 31.8596 7.04513 28.9024 4.38634ZM16.2077 8.71863C16.9081 8.06119 18.374 7.37875 19.3757 7.50028C20.0759 7.58238 20.7239 7.87805 21.2135 8.33888C21.8208 8.88277 22.2017 9.88517 22.2185 10.906C22.2319 11.7198 21.6591 12.4388 21.2755 12.8079C20.5921 13.4421 19.535 14.2133 18.1773 14.0127C17.4815 13.9224 16.8377 13.6286 16.3434 13.1758C15.7223 12.618 15.3539 11.6614 15.3404 10.8458C15.3115 9.56511 15.8142 9.08788 16.2077 8.71863ZM12.6662 24.8928C12.4097 24.6953 10.8047 23.5626 10.9685 22.2664C11.0338 21.933 11.1695 21.6141 11.3681 21.3272L12.4015 19.5848L12.7561 19.579L13.8462 21.2864C14.0542 21.5666 14.2004 21.8808 14.2766 22.2119C14.481 23.5021 12.9142 24.687 12.6662 24.8928ZM20.0886 24.8732C20.075 24.8734 19.7212 23.7432 19.6788 23.6554C18.9881 21.9847 17.8206 20.512 16.2957 19.3879C15.5289 18.8192 14.6824 18.3452 13.7781 17.9783C12.8129 17.589 11.7434 17.373 10.8937 16.7783C9.53342 15.8274 9.73405 14.0474 9.80277 12.6589C10.1049 12.1885 16.9827 15.5489 17.7595 15.9732C19.7258 17.0416 21.0182 18.4837 22.2914 20.1846C22.3005 20.198 22.3104 20.2108 22.3213 20.223C23.2471 21.6346 23.9431 23.1609 24.3875 24.7546L20.0886 24.8732Z" fill="#E79468"/>
</svg>
