<svg width="27" height="27" viewBox="0 0 27 27" fill="none" xmlns="http://www.w3.org/2000/svg">
<path d="M23.5634 9.75767C23.5525 8.93527 23.3985 8.12104 23.1085 7.35141C22.8569 6.70223 22.4727 6.11266 21.9804 5.62037C21.4881 5.12808 20.8986 4.74389 20.2494 4.49235C19.4897 4.20715 18.687 4.05294 17.8757 4.03628C16.8311 3.98959 16.4999 3.97656 13.8483 3.97656C11.1966 3.97656 10.8567 3.97656 9.81972 4.03628C9.00875 4.05307 8.20651 4.20727 7.44711 4.49235C6.79783 4.74371 6.20817 5.12784 5.71586 5.62015C5.22354 6.11247 4.83941 6.70213 4.58805 7.35141C4.30228 8.11057 4.14841 8.913 4.13307 9.72401C4.08638 10.7697 4.07227 11.1009 4.07227 13.7525C4.07227 16.4042 4.07227 16.743 4.13307 17.7811C4.14936 18.5933 4.30247 19.3947 4.58805 20.1559C4.83983 20.8049 5.22425 21.3944 5.71673 21.8865C6.20921 22.3786 6.79893 22.7625 7.4482 23.0138C8.20551 23.3105 9.0079 23.4757 9.8208 23.5025C10.8665 23.5492 11.1977 23.5633 13.8493 23.5633C16.501 23.5633 16.8409 23.5633 17.8779 23.5025C18.6892 23.4865 19.4918 23.3326 20.2516 23.0475C20.9006 22.7957 21.49 22.4114 21.9822 21.9191C22.4745 21.4269 22.8588 20.8374 23.1106 20.1884C23.3962 19.4283 23.5493 18.627 23.5656 17.8137C23.6123 16.7691 23.6264 16.4379 23.6264 13.7851C23.6242 11.1335 23.6242 10.7968 23.5634 9.75767ZM13.8417 18.767C11.0685 18.767 8.82181 16.5204 8.82181 13.7471C8.82181 10.9738 11.0685 8.72719 13.8417 8.72719C15.1731 8.72719 16.4499 9.25608 17.3914 10.1975C18.3328 11.1389 18.8617 12.4158 18.8617 13.7471C18.8617 15.0785 18.3328 16.3553 17.3914 17.2967C16.4499 18.2382 15.1731 18.767 13.8417 18.767ZM19.0615 9.71207C18.9077 9.71221 18.7554 9.68203 18.6133 9.62326C18.4713 9.56448 18.3422 9.47826 18.2334 9.36954C18.1247 9.26081 18.0385 9.13172 17.9797 8.98963C17.9209 8.84755 17.8908 8.69527 17.8909 8.54151C17.8909 8.38786 17.9212 8.23572 17.98 8.09377C18.0388 7.95182 18.1249 7.82283 18.2336 7.71419C18.3422 7.60554 18.4712 7.51936 18.6132 7.46056C18.7551 7.40176 18.9073 7.3715 19.0609 7.3715C19.2146 7.3715 19.3667 7.40176 19.5087 7.46056C19.6506 7.51936 19.7796 7.60554 19.8882 7.71419C19.9969 7.82283 20.0831 7.95182 20.1419 8.09377C20.2007 8.23572 20.2309 8.38786 20.2309 8.54151C20.2309 9.18868 19.7075 9.71207 19.0615 9.71207Z" fill="white"/>
<path d="M13.8429 17.006C15.6438 17.006 17.1037 15.5461 17.1037 13.7452C17.1037 11.9443 15.6438 10.4844 13.8429 10.4844C12.042 10.4844 10.582 11.9443 10.582 13.7452C10.582 15.5461 12.042 17.006 13.8429 17.006Z" fill="white"/>
</svg>
