<svg width="18" height="19" viewBox="0 0 18 19" fill="none" xmlns="http://www.w3.org/2000/svg">
<path d="M16 0.617188C16.5304 0.617188 17.0391 0.827901 17.4142 1.20297C17.7893 1.57805 18 2.08675 18 2.61719V16.6172C18 17.1476 17.7893 17.6563 17.4142 18.0314C17.0391 18.4065 16.5304 18.6172 16 18.6172H2C1.46957 18.6172 0.960859 18.4065 0.585786 18.0314C0.210714 17.6563 0 17.1476 0 16.6172V2.61719C0 2.08675 0.210714 1.57805 0.585786 1.20297C0.960859 0.827901 1.46957 0.617188 2 0.617188H16ZM15.5 16.1172V10.8172C15.5 9.95258 15.1565 9.12339 14.5452 8.51202C13.9338 7.90065 13.1046 7.55719 12.24 7.55719C11.39 7.55719 10.4 8.07719 9.92 8.85719V7.74719H7.13V16.1172H9.92V11.1872C9.92 10.4172 10.54 9.78719 11.31 9.78719C11.6813 9.78719 12.0374 9.93469 12.2999 10.1972C12.5625 10.4598 12.71 10.8159 12.71 11.1872V16.1172H15.5ZM3.88 6.17719C4.32556 6.17719 4.75288 6.00019 5.06794 5.68513C5.383 5.37007 5.56 4.94275 5.56 4.49719C5.56 3.56719 4.81 2.80719 3.88 2.80719C3.43178 2.80719 3.00193 2.98524 2.68499 3.30218C2.36805 3.61911 2.19 4.04897 2.19 4.49719C2.19 5.42719 2.95 6.17719 3.88 6.17719ZM5.27 16.1172V7.74719H2.5V16.1172H5.27Z" fill="white"/>
</svg>
