<svg width="25" height="20" viewBox="0 0 25 20" fill="none" xmlns="http://www.w3.org/2000/svg">
<path d="M12.4588 19.9796C9.95704 19.9796 7.45359 19.9167 4.95447 19.9976C2.34955 20.0821 -0.0377033 17.9297 0.000451241 14.832C0.0412072 11.5509 -0.00995453 8.26986 0.0264657 4.9888C0.0334029 4.33097 0.206832 3.66056 0.391535 3.02339C0.574503 2.39252 0.675959 2.39522 1.11647 2.85265C3.45777 5.27907 5.79907 7.7055 8.1395 10.1319C9.62059 11.6678 11.4017 12.2896 13.4725 11.9742C14.7879 11.7738 15.8961 11.1375 16.8335 10.1643C19.1826 7.72437 21.5352 5.28986 23.8869 2.85265C24.3283 2.39522 24.4271 2.39342 24.6118 3.0225C24.7948 3.64528 24.97 4.30041 24.9769 4.94297C25.0125 8.29862 24.9977 11.6552 24.9925 15.0108C24.9873 17.7958 22.9513 19.9473 20.2666 19.9724C17.6643 19.9967 15.0611 19.9778 12.4588 19.9778V19.9796Z" fill="#197A8A"/>
<path d="M12.5279 0C15.1727 0 17.8167 0.000898676 20.4615 0C21.2644 0 21.9928 0.260616 22.6762 0.673108C23.1002 0.929231 23.1054 1.00112 22.7577 1.3606C20.7259 3.46709 18.6933 5.57269 16.6608 7.67918C16.2827 8.07101 15.9063 8.46373 15.5257 8.85285C13.7888 10.6268 11.2047 10.6304 9.47123 8.84477C7.05362 6.35454 4.64815 3.85172 2.23835 1.3543C1.89756 1.00112 1.9045 0.923839 2.3346 0.668615C3.01965 0.260616 3.74892 0 4.55103 0C7.20971 0.00179735 9.86838 0 12.5279 0Z" fill="#197A8A"/>
</svg>
