<svg width="25" height="28" viewBox="0 0 25 28" fill="none" xmlns="http://www.w3.org/2000/svg">
<path d="M23.3333 17.8889V3.88889C23.3333 2.60022 22.2887 1.55556 21 1.55556H3.88889C2.60022 1.55556 1.55556 2.60022 1.55556 3.88889V24.1111C1.55556 25.3998 2.60022 26.4444 3.88889 26.4444H14.7778C16.0664 26.4444 17.1111 25.3998 17.1111 24.1111C17.1111 21.9633 18.8522 20.2222 21 20.2222C22.2887 20.2222 23.3333 19.1776 23.3333 17.8889ZM22.5578 21.4532C22.0808 21.662 21.554 21.7778 21 21.7778C19.7113 21.7778 18.6667 22.8224 18.6667 24.1111C18.6667 24.6651 18.5508 25.192 18.3421 25.6689C20.2026 24.8152 21.704 23.3137 22.5578 21.4532ZM0 3.88889C0 1.74111 1.74112 0 3.88889 0H21C23.1478 0 24.8889 1.74111 24.8889 3.88889V17.8889C24.8889 23.4731 20.362 28 14.7778 28H3.88889C1.74112 28 0 26.2589 0 24.1111V3.88889ZM7 9.33333C6.57045 9.33333 6.22222 8.98511 6.22222 8.55556C6.22222 8.126 6.57045 7.77778 7 7.77778H17.8889C18.3184 7.77778 18.6667 8.126 18.6667 8.55556C18.6667 8.98511 18.3184 9.33333 17.8889 9.33333H7ZM7 14C6.57045 14 6.22222 13.6518 6.22222 13.2222C6.22222 12.7927 6.57045 12.4444 7 12.4444H17.8889C18.3184 12.4444 18.6667 12.7927 18.6667 13.2222C18.6667 13.6518 18.3184 14 17.8889 14H7ZM7 18.6667C6.57045 18.6667 6.22222 18.3184 6.22222 17.8889C6.22222 17.4593 6.57045 17.1111 7 17.1111H14.7778C15.2073 17.1111 15.5556 17.4593 15.5556 17.8889C15.5556 18.3184 15.2073 18.6667 14.7778 18.6667H7Z" fill="#E79468"/>
</svg>
