<svg width="24" height="17" viewBox="0 0 24 17" fill="none" xmlns="http://www.w3.org/2000/svg">
<path d="M9.6 12.0458L15.828 8.61719L9.6 5.18862V12.0458ZM23.472 3.09719C23.628 3.63433 23.736 4.35433 23.808 5.26862C23.892 6.1829 23.928 6.97147 23.928 7.65719L24 8.61719C24 11.12 23.808 12.96 23.472 14.1372C23.172 15.1658 22.476 15.8286 21.396 16.1143C20.832 16.2629 19.8 16.3658 18.216 16.4343C16.656 16.5143 15.228 16.5486 13.908 16.5486L12 16.6172C6.972 16.6172 3.84 16.4343 2.604 16.1143C1.524 15.8286 0.828 15.1658 0.528 14.1372C0.372 13.6 0.264 12.88 0.192 11.9658C0.108 11.0515 0.0719999 10.2629 0.0719999 9.57719L0 8.61719C0 6.11433 0.192 4.27433 0.528 3.09719C0.828 2.06862 1.524 1.40576 2.604 1.12004C3.168 0.971473 4.2 0.868616 5.784 0.800044C7.344 0.720044 8.772 0.685759 10.092 0.685759L12 0.617188C17.028 0.617188 20.16 0.800045 21.396 1.12004C22.476 1.40576 23.172 2.06862 23.472 3.09719Z" fill="white"/>
</svg>
