<svg width="135" height="27" viewBox="0 0 135 27" fill="none" xmlns="http://www.w3.org/2000/svg">
<path d="M70.1947 17.095C70.1947 19.5342 68.5686 21.4314 67.7555 22.5155C65.8583 24.4127 63.1481 26.5809 59.6248 25.7678C57.7276 25.4968 56.1015 24.6837 54.7464 23.3286C53.1202 21.7024 52.3071 18.9922 52.3071 16.553C52.3071 12.7586 53.6623 11.4035 54.7464 10.5904C56.6435 8.69326 60.4379 6.79609 63.1481 7.33814C64.7742 7.33814 66.4004 8.42224 67.7555 9.77736C69.3817 11.1325 70.1947 14.1137 70.1947 17.095ZM65.5873 17.095C65.5873 13.3007 63.9612 8.15122 61.2509 8.15122C59.6248 8.15122 57.1856 10.8615 56.9145 16.553C56.9145 20.3473 58.5407 25.2257 61.2509 25.2257C63.1481 25.2257 65.3163 22.7865 65.5873 17.095Z" fill="white"/>
<path d="M89.4377 17.095C89.4377 19.5342 87.8115 21.4314 86.9984 22.5155C85.1013 24.4127 82.391 26.5809 78.8677 25.7678C76.9705 25.4968 75.3444 24.6837 73.9893 23.3286C72.3631 21.7024 71.55 18.9922 71.55 16.553C71.55 12.7586 72.9052 11.4035 73.9893 10.5904C75.8864 8.69326 79.6808 6.79609 82.391 7.33814C84.2882 7.60917 85.9143 8.42224 87.2695 9.77736C88.6246 11.1325 89.4377 14.1137 89.4377 17.095ZM84.8302 17.095C84.8302 13.3007 83.2041 8.15122 80.4939 8.15122C78.8677 8.15122 76.4285 10.8615 76.1575 16.553C76.1575 20.3473 77.7836 25.2257 80.4939 25.2257C82.391 25.2257 84.5592 22.7865 84.8302 17.095Z" fill="white"/>
<path d="M95.6715 8.69319V20.8893C95.6715 23.0575 95.6715 25.4967 96.4846 25.4967V25.7677C94.0454 26.3098 91.3352 25.2257 91.3352 21.4313V8.69319H89.438V7.88012C90.5221 7.88012 92.9613 6.79602 95.4005 3.27271H95.9426V7.88012H98.6528V8.42217L95.6715 8.69319Z" fill="white"/>
<path d="M114.101 20.6183L114.914 20.8894C114.372 21.7024 114.101 22.2445 113.559 22.5155C111.662 24.4127 108.952 26.5809 105.428 25.7678C103.531 25.4968 101.905 24.6837 100.55 23.3286C98.9237 21.7024 98.1106 18.9922 98.1106 16.553C98.1106 12.7586 99.4657 11.4035 100.55 10.5904C102.447 8.69326 106.241 6.79609 108.952 7.33814C110.849 7.60917 112.475 8.42224 113.83 9.77736C114.372 10.3194 116.269 12.7586 116.269 16.824H102.989C104.073 23.8706 111.933 23.8706 114.101 20.6183ZM102.718 15.4689H111.391C111.12 10.0484 108.681 7.88019 106.783 7.88019C104.344 8.15122 102.176 11.4035 102.718 15.4689Z" fill="white"/>
<path d="M134.157 25.4969C133.886 25.4969 133.614 24.6838 133.614 23.5997C133.614 22.7867 133.614 21.7026 133.614 20.8895V8.69339V1.37573L129.278 2.73085V10.5906C128.465 9.77749 127.11 8.15134 125.213 7.88032C121.147 7.33827 117.353 11.1326 117.353 17.0951C117.353 22.7867 121.147 25.4969 123.858 26.0389C124.942 26.31 126.026 26.0389 127.11 25.4969L129.549 24.4128L129.82 24.9548C130.633 26.0389 131.717 26.31 132.801 26.31C133.343 26.31 133.886 26.31 134.157 26.31V25.4969ZM126.297 24.6838C125.755 24.9548 125.213 24.9548 124.942 24.6838C123.587 24.4128 122.774 22.7867 122.231 21.7026C121.689 20.0764 121.689 18.4503 121.689 16.8241C121.689 14.1139 121.96 8.96441 125.213 8.96441C126.568 8.96441 128.465 11.1326 129.007 11.9457V22.2446V23.0577V23.3287C129.007 23.3287 127.381 24.4128 127.11 24.4128C127.11 24.4128 126.568 24.4128 126.297 24.6838Z" fill="white"/>
<path d="M49.8683 19.8053C47.9712 17.3661 45.2609 14.6558 42.2797 13.8427C45.2609 12.7586 49.5973 10.8615 49.5973 7.06714C49.5973 1.37563 43.3638 0.0205078 39.2984 0.0205078H31.7097V0.83358C31.9807 0.83358 32.2518 5.98304 32.2518 11.6746C32.2518 12.7586 32.7938 14.1138 33.6069 14.9268C34.42 15.7399 35.7751 16.282 36.8592 16.553C39.0274 17.3661 41.4666 17.9081 43.0927 19.5343C44.9899 21.1604 46.074 23.5996 46.8871 26.0388H52.3076C52.0365 23.3286 50.9524 21.1604 49.8683 19.8053ZM37.6723 13.3007V1.37563C37.6723 1.37563 44.4479 0.562556 44.4479 7.06714C44.7189 13.8427 37.6723 13.3007 37.6723 13.3007Z" fill="white"/>
<path d="M36.5879 21.7021C36.5879 21.1601 36.3169 20.618 36.0458 20.076L34.4197 17.3657H33.8777L32.2515 20.076C31.9805 20.618 31.7095 21.1601 31.7095 21.7021C31.4384 23.8703 33.8777 25.7675 34.1487 26.0385C34.4197 25.7675 36.8589 23.8703 36.5879 21.7021Z" fill="white"/>
<path d="M21.1399 3.54396C19.2427 1.64679 17.0745 0.562691 14.6353 0.0206425C10.841 -0.250382 5.69151 2.18884 3.25229 4.89908C1.62615 6.2542 0 8.15137 0 13.0298C0 16.2821 1.35512 20.0764 3.52332 22.2446C5.42049 24.1418 7.58868 25.2259 10.0279 25.7679C14.9063 26.581 18.7007 23.5998 21.1399 21.1605C22.495 19.8054 24.6632 16.8241 24.6632 13.8429C24.3922 9.77752 23.3081 5.98318 21.1399 3.54396ZM11.654 7.06727C12.1961 6.52523 13.2802 5.98318 14.0933 5.98318C14.6353 5.98318 15.1774 6.2542 15.4484 6.79625C15.7194 7.06727 15.9904 8.15137 15.9904 8.96444C15.9904 9.50649 15.4484 10.3196 15.1774 10.5906C14.9063 10.8616 14.0933 11.4037 13.0092 11.4037C12.4671 11.1326 12.1961 10.8616 11.654 10.5906C11.383 10.0485 11.112 9.23547 11.112 8.69342C11.112 7.60932 11.383 7.3383 11.654 7.06727ZM8.9438 20.0764C8.67278 19.8054 7.58868 18.9923 7.8597 17.9082C7.8597 17.6372 8.13073 17.3662 8.13073 17.0952L8.9438 15.7401H9.21483L10.0279 17.0952C10.2989 17.3662 10.2989 17.6372 10.2989 17.9082C10.2989 18.9923 8.9438 19.8054 8.9438 20.0764ZM14.3643 20.0764C14.3643 20.0764 14.0933 19.2634 14.0933 18.9923C13.5512 17.6372 12.7381 16.5531 11.654 15.469C11.112 15.198 10.5699 14.656 9.75687 14.3849C9.21483 14.1139 8.40175 13.8429 7.58868 13.5719C6.77561 12.7588 6.77561 11.1326 7.04663 10.0485C7.04663 9.77752 12.1961 12.4878 12.7381 12.7588C14.0933 13.5719 15.1774 14.927 15.9904 16.2821C16.5325 17.0952 17.0745 18.4503 17.3456 20.0764C16.5325 20.0764 15.4484 20.0764 14.3643 20.0764Z" fill="white"/>
</svg>
