<svg width="394" height="376" viewBox="0 0 394 376" fill="none" xmlns="http://www.w3.org/2000/svg">
<path d="M328.315 375.688C305.102 366.492 294.45 341.734 289.736 318.335C288.946 314.43 287.553 310.444 288.591 306.609C289.63 302.774 293.376 299.428 297.228 300.236C300.433 300.91 302.483 303.955 304.747 306.343C307.773 309.526 311.639 311.788 315.896 312.867C318.666 313.569 321.906 313.622 324.018 311.704C326.93 309.041 326.229 304.354 325.288 300.502L320.041 278.985C319.101 275.141 318.16 271.209 318.488 267.259C318.816 263.308 320.663 259.269 324.089 257.396C327.516 255.523 332.54 256.509 334.209 260.13C334.91 261.622 334.972 263.326 335.46 264.897C335.949 266.468 337.111 268.066 338.736 268.155C340.36 268.244 341.665 266.779 342.553 265.377C345.606 260.548 347.116 254.893 348.456 249.31C349.796 243.726 351.039 238.036 353.64 232.941C356.241 227.846 360.44 223.292 365.881 221.667C371.322 220.043 378.016 222.058 380.696 227.144C383.377 232.231 381.522 238.516 379.116 243.726C375.544 251.458 370.874 258.634 365.251 265.03C364.248 266.176 363.147 267.418 363.023 268.963C362.792 271.723 365.837 273.703 368.571 273.943C371.669 274.218 374.722 273.179 377.811 272.824C380.9 272.469 384.469 273.02 386.28 275.585C388.792 279.136 386.475 284.062 383.874 287.533C378.665 294.489 372.296 300.495 365.047 305.287C362.463 306.991 359.721 308.615 357.874 311.145C356.028 313.675 355.504 317.474 357.528 319.862C359.552 322.25 363.307 322.277 366.147 321.025C368.988 319.773 371.26 317.528 373.843 315.788C378.664 312.53 385.587 311.269 390.07 315.042C393.008 317.528 394.207 321.664 393.923 325.526C393.639 329.387 392.094 333.009 390.372 336.435C384.212 348.445 375.246 359.097 363.973 366.199C352.699 373.3 341.585 377.224 328.315 375.661" fill="#F5F5F5"/>
<path d="M330.854 359.709C331.708 346.149 333.341 332.649 335.745 319.276C336.336 315.725 336.946 312.213 337.573 308.739C338.177 305.286 338.78 301.859 339.579 298.539C341.117 292.175 343.008 285.901 345.243 279.747C347.329 273.862 349.53 268.35 351.625 263.21C353.72 258.07 355.779 253.321 357.839 249.069C361.046 242.343 364.786 235.884 369.024 229.753C370.515 227.588 371.731 225.936 372.574 224.836C372.983 224.315 373.302 223.898 373.533 223.584C373.635 223.435 373.754 223.298 373.888 223.176C373.803 223.338 373.705 223.492 373.595 223.637L372.707 224.925C371.909 226.061 370.728 227.73 369.272 229.913C365.146 236.095 361.485 242.576 358.318 249.3C356.303 253.552 354.279 258.301 352.202 263.441C350.125 268.58 347.959 274.093 345.891 279.987C343.684 286.13 341.814 292.388 340.29 298.735C339.499 302.037 338.905 305.437 338.301 308.899C337.698 312.361 337.094 315.876 336.481 319.426C334.08 332.771 332.432 346.241 331.546 359.771" fill="#E0E0E0"/>
<path d="M339.773 298.469C339.457 297.979 339.198 297.455 339.001 296.907C338.548 295.895 337.936 294.404 337.226 292.548C335.77 288.838 333.932 283.672 331.9 277.92C329.867 272.167 327.994 267.037 326.494 263.362C325.739 261.524 325.118 260.042 324.674 259.021C324.409 258.505 324.207 257.96 324.07 257.396C324.42 257.863 324.718 258.366 324.958 258.897C325.482 259.882 326.174 261.338 326.991 263.158C328.624 266.797 330.612 271.937 332.619 277.671C334.625 283.405 336.347 288.456 337.705 292.362L339.276 296.8C339.499 297.338 339.666 297.897 339.773 298.469Z" fill="#E0E0E0"/>
<path d="M387.133 277.43C386.515 277.728 385.87 277.966 385.207 278.14C383.964 278.548 382.162 279.143 379.952 279.915C375.513 281.477 369.504 283.856 362.961 286.777C356.419 289.697 350.614 292.6 346.477 294.819C344.4 295.92 342.74 296.852 341.595 297.482C341.018 297.849 340.409 298.164 339.775 298.423C340.293 297.977 340.852 297.582 341.444 297.243C342.554 296.524 344.178 295.521 346.229 294.367C350.312 292.023 356.1 289.04 362.66 286.102C368.252 283.581 373.97 281.35 379.792 279.418C382.02 278.681 383.857 278.166 385.118 277.838C385.774 277.635 386.449 277.498 387.133 277.43Z" fill="#E0E0E0"/>
<path d="M331.243 358.653C331.063 358.498 330.903 358.322 330.764 358.129L329.494 356.54C328.394 355.147 326.831 353.096 324.985 350.548C321.248 345.435 316.312 338.21 310.969 330.176C305.625 322.143 300.752 314.873 297.13 309.689L292.816 303.564C292.345 302.898 291.928 302.348 291.653 301.895C291.378 301.442 291.262 301.3 291.289 301.282C291.316 301.265 291.466 301.442 291.768 301.806L293.038 303.395C294.138 304.78 295.701 306.83 297.547 309.387C301.284 314.5 306.22 321.717 311.572 329.759C316.925 337.801 321.781 345.063 325.402 350.238L329.716 356.363L330.879 358.04C331.137 358.422 331.27 358.635 331.243 358.653Z" fill="#E0E0E0"/>
<path d="M392.066 321.814C391.887 321.982 391.687 322.126 391.471 322.241L389.696 323.332L383.189 327.291C377.686 330.638 370.149 335.343 361.832 340.553C353.514 345.764 345.916 350.406 340.35 353.638C337.571 355.253 335.299 356.531 333.719 357.392L331.89 358.369C331.682 358.496 331.459 358.594 331.225 358.662C331.403 358.494 331.603 358.351 331.819 358.236L333.595 357.144L340.101 353.185C345.605 349.838 353.141 345.134 361.468 339.923C369.794 334.712 377.375 330.079 382.941 326.848C385.719 325.232 387.983 323.945 389.572 323.084L391.4 322.116C391.607 321.985 391.831 321.883 392.066 321.814Z" fill="#E0E0E0"/>
<path d="M29.6935 105.347L17.8359 166.406L108.426 183.999L120.284 122.94L29.6935 105.347Z" fill="#EBEBEB"/>
<path d="M79.4925 129.604C78.4612 128.049 76.9152 126.865 75.1073 126.248C72.5197 125.355 68.2402 126.439 65.9986 127.878C64.7388 128.689 63.1324 129.735 62.4438 133.314C62.0036 135.602 62.424 138.47 63.7424 140.367C64.8059 141.93 66.2851 143.031 68.1281 143.727C71.6163 145.044 74.8695 143.488 77.0514 142.096C78.31 141.291 80.2243 139.603 80.6632 137.322C81.2085 134.471 80.7848 131.464 79.4925 129.604ZM72.0645 130.628C72.5244 130.333 73.4038 130.11 73.9346 130.294C74.306 130.421 74.6234 130.665 74.8349 130.985C75.1005 131.365 75.1882 131.982 75.0755 132.568C74.9856 133.036 74.5879 133.381 74.335 133.549C73.8873 133.833 73.2197 134.153 72.5046 133.883C72.1366 133.752 71.8212 133.51 71.6062 133.194C71.3347 132.804 71.2484 132.214 71.3384 131.746C71.4756 131.01 71.8063 130.795 72.0645 130.628ZM68.2052 139.476C68.0892 139.334 67.3507 138.502 67.5947 137.779C67.67 137.596 67.782 137.429 67.9244 137.288L68.695 136.409L68.8887 136.447L69.2783 137.548C69.358 137.732 69.4 137.929 69.402 138.127C69.3592 138.889 68.3648 139.387 68.2052 139.476ZM72.2481 140.315C72.2407 140.314 72.183 139.627 72.1705 139.572C71.994 138.537 71.5343 137.56 70.8384 136.743C70.4889 136.329 70.0847 135.961 69.6362 135.648C69.1573 135.315 68.6009 135.068 68.2093 134.631C67.5824 133.931 67.9042 132.936 68.1074 132.149C68.328 131.915 71.6708 134.625 72.043 134.957C72.9858 135.793 73.5171 136.766 74.0071 137.885C74.0105 137.894 74.0144 137.902 74.0188 137.911C74.3543 138.824 74.5508 139.777 74.6025 140.74L72.2481 140.315Z" fill="#BACCCF"/>
<g clip-path="url(#clip0_1075_71755)">
<path d="M59.5496 157.083C59.3007 158.376 58.2486 159.34 57.5572 159.802C56.3618 160.601 54.5803 161.495 52.6811 160.763C51.7035 160.407 50.8677 159.745 50.299 158.878C49.5868 157.808 49.3692 156.185 49.6192 154.885C50.0086 152.862 50.8924 152.255 51.5825 151.791C52.8117 150.967 55.1557 150.335 56.5627 150.831C57.5479 151.173 58.3875 151.838 58.9434 152.716C59.6432 153.764 59.8609 155.465 59.5496 157.083ZM56.9334 156.594C57.3178 154.557 56.9668 151.438 55.5152 151.158C54.598 150.982 52.9214 152.217 52.2389 155.372C51.832 157.423 52.2572 160.322 53.6972 160.599C54.7765 160.82 56.2537 159.734 56.9345 156.588L56.9334 156.594Z" fill="#BACCCF"/>
<path d="M70.1805 159.129C69.9316 160.423 68.8794 161.387 68.1881 161.849C66.9927 162.647 65.2111 163.541 63.3105 162.81C62.3333 162.453 61.498 161.792 60.9299 160.924C60.2176 159.855 60 158.232 60.2501 156.932C60.6395 154.908 61.5232 154.302 62.2134 153.838C63.4426 153.013 65.7866 152.382 67.1935 152.878C68.1788 153.22 69.0183 153.885 69.5742 154.763C70.2741 155.81 70.4917 157.512 70.1805 159.129ZM67.5643 158.641C67.9486 156.604 67.5977 153.484 66.1461 153.205C65.2274 153.028 63.5523 154.264 62.8698 157.418C62.4629 159.47 62.8881 162.369 64.328 162.646C65.4073 162.867 66.8846 161.781 67.5654 158.635L67.5643 158.641Z" fill="#BACCCF"/>
<path d="M74.4478 155.161L73.1544 161.883L73.1058 164.489L73.0602 164.726C71.7097 164.801 70.3531 163.886 70.7439 161.855L72.1182 154.713L70.9535 154.489L71.0241 154.122C71.6283 154.238 73.1316 153.974 74.726 152.217L75.0041 152.27L74.5312 154.727L76.1328 155.036L76.0493 155.469L74.4478 155.161Z" fill="#BACCCF"/>
<path d="M83.4306 163.569L83.8443 163.868C83.5669 164.157 83.2599 164.416 82.9283 164.642C81.7329 165.44 79.9496 166.335 78.0508 165.603C77.0731 165.247 76.2375 164.585 75.6701 163.717C74.9564 162.648 74.7403 161.025 74.9901 159.726C75.3809 157.695 76.2634 157.095 76.9533 156.632C78.1825 155.808 80.5254 155.175 81.9338 155.67C82.9183 156.014 83.7575 156.679 84.3145 157.556C84.6025 157.989 85.3795 159.483 84.9564 161.682L77.6126 160.269C77.6099 164.316 81.9458 165.22 83.4306 163.569ZM77.67 159.68L82.428 160.596C82.8031 157.626 81.8035 156.104 80.6251 155.975C79.2781 155.827 77.8208 157.397 77.67 159.68Z" fill="#BACCCF"/>
<path d="M94.0708 168.531C93.8539 168.489 93.8364 168.054 93.8971 167.479C93.9471 167.008 94.1194 165.924 94.1194 165.924L95.5692 159.174L96.3414 155.161L93.7347 155.369L92.9221 159.685C92.5994 159.174 92.0072 158.108 90.9624 157.739C88.7632 156.966 86.2797 158.739 85.6628 161.945C85.0745 165.002 86.8136 166.95 88.2434 167.538C88.8302 167.769 89.4764 167.805 90.0842 167.639L91.589 167.249C91.5666 167.256 91.683 167.498 91.6884 167.517C91.98 168.128 92.6052 168.379 93.2288 168.544C93.4963 168.614 93.7732 168.642 94.0493 168.627L94.0708 168.531ZM89.8123 167.2C89.5408 167.238 89.2639 167.211 89.0046 167.121C88.2288 166.822 87.9472 165.868 87.8618 165.135C87.7735 164.221 87.8236 163.3 88.0104 162.401C88.3041 160.875 88.986 158.053 90.8686 158.415C91.6097 158.557 92.428 159.923 92.6958 160.406C92.6942 160.415 92.7073 160.425 92.6067 160.415L91.6513 166.164L91.5679 166.598C91.5498 166.609 91.5352 166.625 91.5259 166.644C91.5167 166.664 91.513 166.685 91.5154 166.706C91.5017 166.777 90.4559 167.057 90.3297 167.093C90.1604 167.142 89.9874 167.178 89.8123 167.2Z" fill="#BACCCF"/>
<path d="M48.0123 156.483C47.2413 154.911 46.0159 153.189 44.4704 152.441C46.2463 152.235 48.7736 151.561 49.1783 149.458C49.7669 146.399 46.4311 144.973 44.2894 144.561L40.1035 143.756L40.0234 144.172C40.2374 144.213 39.7942 147.098 39.2221 150.314C39.1615 150.648 39.18 150.992 39.276 151.318C39.372 151.644 39.543 151.944 39.7754 152.194C40.2314 152.65 40.7539 153.035 41.3252 153.336C42.4017 153.94 43.6448 154.62 44.4777 155.565C45.4305 156.647 45.739 158.198 45.9571 159.576L48.9797 160.158C48.8533 158.89 48.5268 157.65 48.0123 156.483ZM41.9348 151.502L43.1954 144.95C43.1954 144.95 47.0549 145.294 46.369 148.859C45.6603 152.62 41.9348 151.502 41.9348 151.502Z" fill="#BACCCF"/>
<path d="M40.4084 155.99C40.4083 155.686 40.3488 155.385 40.2332 155.103L39.67 153.416L39.3788 153.36L38.2298 154.717C38.018 154.936 37.851 155.194 37.7381 155.476C37.3725 156.591 38.4507 157.862 38.6206 158.077C38.8613 157.941 40.3383 157.162 40.4084 155.99Z" fill="#BACCCF"/>
</g>
<path d="M156.798 93.1051L99.5339 99.0969L94.8203 59.3112L152.084 53.3105L156.798 93.1051Z" fill="#F5F5F5"/>
<path d="M129.315 64.2176C128.331 63.4081 127.086 62.9441 125.782 62.9013C123.915 62.8346 121.337 64.3965 120.161 65.7831C119.5 66.5636 118.66 67.5671 118.925 70.0407C119.094 71.6221 119.941 73.4108 121.18 74.3859C122.186 75.1942 123.371 75.6177 124.713 75.7043C127.253 75.8687 129.066 74.2039 130.213 72.8595C130.874 72.0832 131.787 70.5991 131.618 69.0226C131.406 67.0526 130.529 65.174 129.315 64.2176ZM124.67 66.3682C124.911 66.0833 125.441 65.7626 125.824 65.777C126.092 65.786 126.347 65.8815 126.549 66.0481C126.799 66.2436 126.979 66.629 127.022 67.034C127.057 67.3569 126.866 67.662 126.734 67.8216C126.499 68.0967 126.127 68.4388 125.606 68.4051C125.34 68.3927 125.086 68.2977 124.882 68.1346C124.627 67.9339 124.453 67.5663 124.419 67.2427C124.361 66.7349 124.534 66.5282 124.67 66.3682ZM123.915 72.9143C123.811 72.8445 123.163 72.4487 123.178 71.9281C123.191 71.7935 123.231 71.6622 123.295 71.5415L123.623 70.8143L123.757 70.7999L124.231 71.4415C124.32 71.5458 124.387 71.6657 124.427 71.7946C124.551 72.3003 124.002 72.8241 123.915 72.9143ZM126.722 72.6555C126.717 72.656 126.542 72.2189 126.523 72.1855C126.201 71.545 125.706 70.9994 125.089 70.6043C124.778 70.4043 124.441 70.2446 124.086 70.1294C123.707 70.0074 123.294 69.9577 122.951 69.7502C122.403 69.4184 122.414 68.7044 122.39 68.1504C122.487 67.9532 125.21 69.0558 125.519 69.1981C126.301 69.5561 126.842 70.0854 127.386 70.7181C127.389 70.7231 127.394 70.7279 127.398 70.7324C127.8 71.2619 128.118 71.8448 128.344 72.463L126.722 72.6555Z" fill="#BACCCF"/>
<g clip-path="url(#clip1_1075_71755)">
<path d="M121.782 86.1383C121.877 87.0325 121.383 87.8716 121.024 88.3112C120.403 89.0708 119.418 90.0098 118.032 89.9113C117.323 89.8734 116.645 89.6083 116.101 89.1557C115.423 88.5996 114.957 87.5832 114.861 86.685C114.711 85.2861 115.167 84.7139 115.525 84.2734C116.163 83.4898 117.567 82.61 118.585 82.6529C119.296 82.6799 119.977 82.9464 120.515 83.4087C121.181 83.9529 121.662 85.0202 121.782 86.1383ZM119.976 86.3413C119.821 84.935 118.97 82.9685 117.966 83.0757C117.332 83.1435 116.484 84.2841 116.668 86.4797C116.812 87.9004 117.667 89.7078 118.663 89.6014C119.411 89.5305 120.159 88.5269 119.976 86.3373L119.976 86.3413Z" fill="#BACCCF"/>
<path d="M129.129 85.3531C129.225 86.2474 128.73 87.0864 128.371 87.526C127.75 88.2857 126.766 89.2246 125.379 89.1263C124.67 89.0884 123.992 88.8232 123.449 88.3705C122.77 87.8144 122.304 86.7981 122.208 85.8998C122.059 84.501 122.515 83.9288 122.873 83.4883C123.511 82.7046 124.915 81.8249 125.932 81.8677C126.644 81.8947 127.325 82.1612 127.863 82.6235C128.528 83.1678 129.01 84.235 129.129 85.3531ZM127.324 85.5562C127.169 84.1499 126.317 82.1833 125.314 82.2906C124.679 82.3584 123.832 83.499 124.016 85.6945C124.159 87.1152 125.015 88.9226 126.01 88.8162C126.759 88.7453 127.507 87.7417 127.324 85.5522L127.324 85.5562Z" fill="#BACCCF"/>
<path d="M131.123 81.9118L131.62 86.5579L132.108 88.2692L132.125 88.4331C131.259 88.7511 130.191 88.4246 130.04 87.0208L129.513 82.0839L128.708 82.17L128.681 81.9162C129.098 81.8715 130.027 81.3994 130.717 79.934L130.909 79.9135L131.091 81.6121L132.198 81.4938L132.23 81.7935L131.123 81.9118Z" fill="#BACCCF"/>
<path d="M138.665 85.6067L138.995 85.719C138.871 85.963 138.722 86.1936 138.551 86.4071C137.93 87.1668 136.944 88.1068 135.559 88.0074C134.849 87.9701 134.172 87.7048 133.628 87.2516C132.949 86.6956 132.484 85.6791 132.388 84.7819C132.238 83.3781 132.695 82.8098 133.053 82.3704C133.691 81.5867 135.094 80.7061 136.112 80.7488C136.823 80.7768 137.504 81.0432 138.042 81.5046C138.317 81.7299 139.122 82.5503 139.284 84.0701L134.208 84.6126C135.014 87.2551 138.025 86.9807 138.665 85.6067ZM134.128 84.2169L137.417 83.8654C137.07 81.8521 136.114 81.0579 135.318 81.2086C134.41 81.3805 133.772 82.6968 134.128 84.2169Z" fill="#BACCCF"/>
<path d="M146.6 86.7257C146.45 86.7417 146.352 86.4612 146.277 86.0741C146.216 85.7562 146.112 85.0144 146.112 85.0144L145.712 80.3186L145.416 77.5449L143.755 78.2004L144.086 81.1806C143.773 80.9108 143.174 80.3332 142.418 80.3008C140.828 80.2352 139.561 81.8876 139.798 84.1037C140.023 86.217 141.547 87.1415 142.598 87.2404C143.027 87.2742 143.456 87.1684 143.82 86.939L144.725 86.3845C144.711 86.393 144.836 86.5283 144.843 86.5396C145.155 86.8802 145.613 86.9191 146.053 86.9024C146.242 86.8948 146.428 86.8578 146.605 86.7929L146.6 86.7257ZM143.555 86.7066C143.385 86.7855 143.199 86.8231 143.012 86.8162C142.446 86.7756 142.072 86.2093 141.87 85.7478C141.63 85.1687 141.479 84.5571 141.421 83.9332C141.308 82.8781 141.191 80.8999 142.492 80.7608C143.004 80.706 143.811 81.4344 144.082 81.6964C144.083 81.7024 144.093 81.7063 144.025 81.7196L144.549 85.6636L144.581 85.9633C144.571 85.9743 144.565 85.9878 144.563 86.0021C144.56 86.0165 144.562 86.0312 144.568 86.0445C144.573 86.0935 143.946 86.4849 143.871 86.5333C143.77 86.5992 143.665 86.6571 143.555 86.7066Z" fill="#BACCCF"/>
<path d="M114.13 88.0471C113.313 87.1743 112.169 86.295 111.011 86.1147C112.129 85.6263 113.645 84.6821 113.489 83.2283C113.263 81.1141 110.801 80.8487 109.321 81.0069L106.428 81.3162L106.458 81.6039C106.606 81.5881 106.892 83.5595 107.161 85.7733C107.188 86.0035 107.268 86.2242 107.396 86.418C107.524 86.6118 107.695 86.7735 107.897 86.8901C108.285 87.0967 108.703 87.2439 109.136 87.3266C109.96 87.5064 110.907 87.7023 111.639 88.1526C112.477 88.6694 112.988 89.6203 113.405 90.4761L115.494 90.2528C115.159 89.4508 114.698 88.7065 114.13 88.0471ZM109.168 86.0074L108.684 81.4792C108.684 81.4792 111.273 80.9338 111.536 83.3977C111.824 85.9945 109.168 86.0074 109.168 86.0074Z" fill="#BACCCF"/>
<path d="M109.068 89.2426C109.007 89.0442 108.908 88.8595 108.777 88.6987L108.072 87.7098L107.871 87.7313L107.392 88.8467C107.297 89.0317 107.24 89.2332 107.222 89.4399C107.206 90.241 108.163 90.8551 108.317 90.962C108.447 90.8248 109.256 90.0219 109.068 89.2426Z" fill="#BACCCF"/>
</g>
<path d="M77.4484 44.8774L45.8027 22.9607L60.7512 0.742188L92.3968 22.65L77.4484 44.8774Z" fill="#F5F5F5"/>
<path d="M76.833 17.8653C76.7079 17.064 76.312 16.3162 75.7101 15.7441C74.8502 14.922 72.9633 14.574 71.8169 14.7356C71.1723 14.8272 70.348 14.9489 69.4268 16.2373C68.8378 17.061 68.4834 18.2701 68.66 19.2583C68.7964 20.0686 69.1809 20.7717 69.7825 21.3809C70.921 22.5342 72.4881 22.5099 73.6024 22.3558C74.2455 22.2664 75.3078 21.947 75.895 21.1258C76.6276 20.0988 77.0059 18.8343 76.833 17.8653ZM73.7136 16.9222C73.9489 16.8888 74.3366 16.9605 74.5128 17.1295C74.6364 17.2472 74.7176 17.4009 74.7431 17.5655C74.7789 17.7641 74.7016 18.0237 74.5507 18.2347C74.4305 18.4028 74.2107 18.4672 74.0804 18.4874C73.852 18.5185 73.5303 18.5239 73.2969 18.2874C73.1754 18.1687 73.0947 18.016 73.0671 17.8523C73.0307 17.6489 73.1035 17.4004 73.224 17.2319C73.4118 16.9661 73.5814 16.941 73.7136 16.9222ZM70.5841 19.7163C70.5641 19.6391 70.4234 19.1765 70.6509 18.9353C70.7139 18.8766 70.7884 18.831 70.8703 18.801L71.334 18.5939L71.4037 18.6437L71.3577 19.1495C71.3558 19.2367 71.3367 19.322 71.3015 19.4006C71.1465 19.6936 70.6633 19.71 70.5841 19.7163ZM72.0285 20.7812C72.0258 20.7793 72.1278 20.4975 72.1328 20.4734C72.2509 20.0327 72.2464 19.5637 72.12 19.1145C72.0569 18.8878 71.9641 18.6691 71.8439 18.4639C71.7152 18.2454 71.5401 18.0473 71.4649 17.8034C71.3442 17.4133 71.6519 17.0785 71.8749 16.8048C72.0046 16.7522 72.833 18.4292 72.9198 18.6277C73.1404 19.1291 73.1736 19.6098 73.1641 20.1406C73.1639 20.1447 73.1639 20.1487 73.1641 20.1528C73.1308 20.5745 73.0356 20.9865 72.8813 21.3761L72.0285 20.7812Z" fill="#BACCCF"/>
<g clip-path="url(#clip2_1075_71755)">
<path d="M63.9725 25.0981C63.6395 25.5639 63.0491 25.7537 62.6922 25.8107C62.0753 25.9091 61.2095 25.9389 60.5921 25.3056C60.2708 24.9873 60.0607 24.5744 59.9934 24.1288C59.9062 23.5772 60.1148 22.8966 60.4493 22.4287C60.9703 21.7001 61.4294 21.6209 61.7861 21.563C62.4212 21.4603 63.4614 21.6362 63.9272 22.0872C64.2541 22.4012 64.4651 22.8161 64.5253 23.2637C64.6117 23.8044 64.3889 24.5158 63.9725 25.0981ZM63.0279 24.4306C63.5493 23.6959 63.9767 22.4002 63.4541 22.0265C63.1238 21.7904 62.2377 21.974 61.3958 23.096C60.8628 23.8325 60.5048 25.0544 61.0232 25.4251C61.4093 25.7082 62.1897 25.5474 63.0294 24.4285L63.0279 24.4306Z" fill="#BACCCF"/>
<path d="M67.8007 27.8364C67.4676 28.3022 66.8772 28.4919 66.5204 28.549C65.9034 28.6474 65.0376 28.6772 64.4197 28.0435C64.0985 27.7253 63.8886 27.3125 63.8216 26.867C63.7343 26.3154 63.9429 25.6348 64.2775 25.167C64.7984 24.4384 65.2575 24.3592 65.6142 24.3013C66.2493 24.1985 67.2896 24.3745 67.7553 24.8255C68.0823 25.1395 68.2932 25.5543 68.3535 26.002C68.4398 26.5426 68.2171 27.2541 67.8007 27.8364ZM66.856 27.1688C67.3774 26.4342 67.8048 25.1385 67.2822 24.7648C66.9514 24.5283 66.0658 24.7122 65.2239 25.8343C64.6909 26.5708 64.3329 27.7927 64.8513 28.1633C65.2374 28.4465 66.0179 28.2857 66.8575 27.1668L66.856 27.1688Z" fill="#BACCCF"/>
<path d="M70.2052 27.0419L68.4748 29.4619L67.9827 30.4825L67.9217 30.5678C67.3748 30.3522 67.005 29.7449 67.5279 29.0137L69.3665 26.4423L68.9472 26.1424L69.0417 26.0102C69.2592 26.1658 69.9008 26.3343 70.8493 25.9295L70.9494 26.0011L70.3168 26.8858L70.8934 27.2981L70.7818 27.4542L70.2052 27.0419Z" fill="#BACCCF"/>
<path d="M72.2278 31.9919L72.337 32.1848C72.175 32.2486 72.0067 32.2954 71.8348 32.3244C71.2179 32.4228 70.3512 32.4527 69.7342 31.8189C69.4126 31.5009 69.2027 31.088 69.136 30.6424C69.0483 30.0905 69.2574 29.4102 69.5916 28.9429C70.1144 28.2117 70.5719 28.1346 70.9283 28.0772C71.5634 27.9744 72.6035 28.1495 73.0698 28.6009C73.3962 28.9152 73.6071 29.3299 73.6679 29.7773C73.7031 30.0007 73.7389 30.7317 73.1729 31.5233L70.5289 29.6328C69.7936 31.2306 71.3418 32.3746 72.2278 31.9919ZM70.6584 29.4108L72.3714 30.6356C73.0583 29.5309 72.9396 28.7485 72.4977 28.4836C71.9926 28.1807 71.1321 28.5367 70.6584 29.4108Z" fill="#BACCCF"/>
<path d="M75.5274 35.8843C75.4493 35.8285 75.5213 35.6535 75.6495 35.4376C75.7548 35.2604 76.0195 34.8637 76.0195 34.8637L77.8168 32.4609L78.8498 31.0162L77.7827 30.6252L76.6786 32.1827C76.6439 31.922 76.6035 31.3936 76.2578 31.0583C75.5294 30.3543 74.227 30.6036 73.4017 31.7579C72.6146 32.8586 72.9481 33.9433 73.406 34.4351C73.5958 34.6329 73.8446 34.7641 74.1147 34.8089L74.7796 34.9281C74.7697 34.9265 74.7716 35.0435 74.7703 35.052C74.7747 35.3461 74.9761 35.5585 75.1924 35.7368C75.2854 35.813 75.3896 35.8743 75.5014 35.9184L75.5274 35.8843ZM74.087 34.5862C73.9729 34.5519 73.8684 34.4909 73.7823 34.4084C73.5302 34.1495 73.592 33.7218 73.6913 33.4168C73.8223 33.0398 74.0093 32.685 74.2461 32.364C74.639 31.8144 75.4203 30.8237 76.0981 31.3083C76.3649 31.4991 76.4403 32.1869 76.4584 32.4263C76.4561 32.4295 76.4595 32.4358 76.4216 32.4135L75.0012 34.5108L74.8896 34.6669C74.8804 34.6681 74.8717 34.6718 74.8645 34.6777C74.8574 34.6836 74.8521 34.6914 74.8492 34.7001C74.8309 34.7256 74.3671 34.6465 74.3108 34.6377C74.235 34.6263 74.1602 34.6091 74.087 34.5862Z" fill="#BACCCF"/>
<path d="M59.5252 22.768C59.506 22.0071 59.3343 21.1049 58.8598 20.5289C59.5984 20.7699 60.7188 20.9623 61.2603 20.2051C62.0477 19.1039 60.989 17.9355 60.2179 17.3842L58.7109 16.3066L58.6038 16.4565C58.6808 16.5116 57.9824 17.5703 57.1729 18.7368C57.0884 18.8577 57.0333 18.9968 57.0121 19.1431C56.9908 19.2893 57.0039 19.4387 57.0504 19.5795C57.1478 19.8423 57.2843 20.0892 57.4552 20.3118C57.7707 20.7458 58.1383 21.2399 58.2959 21.7639C58.4757 22.3644 58.3162 23.0329 58.1524 23.6166L59.2406 24.3946C59.4205 23.8713 59.5166 23.3223 59.5252 22.768ZM58.0288 19.6979L59.7153 17.3394C59.7153 17.3394 61.1771 18.1754 60.2595 19.4588C59.2972 20.8157 58.0288 19.6979 58.0288 19.6979Z" fill="#BACCCF"/>
<path d="M56.6119 21.1946C56.667 21.0746 56.6982 20.9449 56.7036 20.8127L56.7872 20.0443L56.6824 19.9693L55.9824 20.297C55.859 20.3449 55.7463 20.4163 55.6506 20.5073C55.3038 20.8814 55.4992 21.5787 55.5271 21.6947C55.647 21.6844 56.3716 21.6449 56.6119 21.1946Z" fill="#BACCCF"/>
</g>
<path d="M331.82 74.0385C331.833 68.6097 330.593 63.2512 328.197 58.3799C325.8 53.5086 322.312 49.2559 318.004 45.9528C313.696 42.6497 308.683 40.3853 303.357 39.3357C298.031 38.2861 292.534 38.4797 287.295 39.9014C282.055 41.3231 277.215 43.9345 273.149 47.5326C269.084 51.1306 265.904 55.6181 263.856 60.6459C261.809 65.6737 260.949 71.1062 261.343 76.5206C261.738 81.9351 263.377 87.1854 266.132 91.863L266.23 91.9962C267.579 94.2775 269.274 95.9109 270.988 98.3076L291.466 125.444C292.062 126.229 292.831 126.866 293.713 127.304C294.595 127.743 295.567 127.971 296.553 127.971C297.538 127.971 298.51 127.743 299.393 127.304C300.275 126.866 301.044 126.229 301.639 125.444L321.789 98.7514C323.621 96.5847 325.331 94.3176 326.911 91.9607L326.973 91.9074C330.158 86.4919 331.832 80.3211 331.82 74.0385ZM296.535 89.4042C293.463 89.4042 290.459 88.4931 287.905 86.7862C285.35 85.0792 283.359 82.6531 282.183 79.8146C281.007 76.9761 280.7 73.8526 281.299 70.8393C281.899 67.8259 283.378 65.0579 285.551 62.8854C287.723 60.7129 290.491 59.2334 293.504 58.634C296.518 58.0346 299.641 58.3423 302.48 59.518C305.318 60.6938 307.744 62.6848 309.451 65.2394C311.158 67.7941 312.069 70.7975 312.069 73.8699C312.069 77.9898 310.433 81.941 307.519 84.8543C304.606 87.7675 300.655 89.4042 296.535 89.4042Z" fill="#F5F5F5"/>
<path d="M358.807 134.594C358.827 131.659 358.167 128.759 356.879 126.121C355.591 123.483 353.711 121.179 351.385 119.388C349.059 117.598 346.35 116.369 343.471 115.8C340.591 115.23 337.619 115.334 334.786 116.103C331.953 116.873 329.337 118.287 327.142 120.236C324.946 122.185 323.232 124.615 322.131 127.336C321.031 130.058 320.575 132.997 320.8 135.924C321.024 138.851 321.922 141.686 323.425 144.208L323.478 144.279C324.206 145.504 325.12 146.392 326.043 147.679L337.095 162.316C337.414 162.741 337.828 163.085 338.303 163.323C338.778 163.56 339.302 163.683 339.833 163.683C340.364 163.683 340.888 163.56 341.364 163.323C341.839 163.085 342.252 162.741 342.572 162.316L353.437 147.918C354.428 146.752 355.353 145.531 356.206 144.261V144.208C357.918 141.294 358.816 137.974 358.807 134.594ZM339.776 142.876C338.12 142.875 336.503 142.382 335.127 141.461C333.752 140.54 332.68 139.232 332.048 137.703C331.416 136.173 331.252 134.49 331.576 132.867C331.9 131.244 332.697 129.753 333.868 128.583C335.04 127.414 336.531 126.617 338.155 126.295C339.778 125.973 341.461 126.139 342.99 126.773C344.519 127.407 345.826 128.48 346.745 129.856C347.664 131.232 348.155 132.85 348.155 134.506C348.155 135.606 347.938 136.695 347.517 137.711C347.096 138.727 346.479 139.65 345.7 140.428C344.922 141.205 343.998 141.822 342.982 142.242C341.965 142.662 340.876 142.878 339.776 142.876Z" fill="#EBEBEB"/>
<path d="M393.879 375.758C393.879 375.891 305.892 375.989 197.383 375.989C88.8733 375.989 0.869141 375.891 0.869141 375.758C0.869141 375.625 88.8378 375.527 197.383 375.527C305.928 375.527 393.879 375.634 393.879 375.758Z" fill="#263238"/>
<path d="M143.536 69.6611L149.377 152.392C149.839 158.903 152.753 164.996 157.53 169.444C162.307 173.891 168.592 176.363 175.119 176.36C178.652 176.36 182.148 175.635 185.389 174.229C188.63 172.823 191.548 170.767 193.961 168.186C196.375 165.606 198.233 162.558 199.42 159.23C200.607 155.903 201.098 152.367 200.862 148.842C200.347 140.968 199.876 134.524 199.876 134.524C199.876 134.524 219.911 131.408 220.16 111.382C220.302 99.8421 218.305 73.5669 216.609 53.461C216.049 46.9048 213.048 40.7976 208.2 36.3479C203.353 31.8982 197.012 29.43 190.432 29.4316H178.297C173.348 29.7203 168.507 30.999 164.061 33.1919C159.615 35.3849 155.654 38.4476 152.413 42.1987C149.172 45.9498 146.716 50.3131 145.191 55.0302C143.666 59.7474 143.103 64.7225 143.536 69.6611Z" fill="#D9AC9B"/>
<path d="M199.894 134.274C199.894 134.274 187.235 135.304 173.787 126.853C173.787 126.853 179.956 141.269 199.938 139.467L199.894 134.274Z" fill="#CF836C"/>
<path d="M210.35 77.705C210.358 78.4511 210.073 79.1705 209.557 79.7095C209.042 80.2485 208.335 80.5645 207.59 80.59C207.226 80.6189 206.861 80.5749 206.515 80.4605C206.168 80.3461 205.849 80.1636 205.574 79.9237C205.299 79.6838 205.075 79.3915 204.916 79.0638C204.756 78.7361 204.663 78.3798 204.643 78.0157C204.635 77.2703 204.918 76.5512 205.432 76.011C205.946 75.4708 206.65 75.1519 207.395 75.1219C207.759 75.0929 208.126 75.1372 208.473 75.2521C208.82 75.3669 209.141 75.5501 209.417 75.7908C209.692 76.0315 209.917 76.3248 210.077 76.6536C210.237 76.9823 210.33 77.3398 210.35 77.705Z" fill="#263238"/>
<path d="M213.121 73.5846C212.766 73.9574 210.6 72.3596 207.529 72.3685C204.457 72.3774 202.203 73.9131 201.857 73.5402C201.697 73.3716 202.061 72.6526 203.037 71.9779C204.369 71.0569 205.954 70.5702 207.573 70.5843C209.168 70.5778 210.723 71.0817 212.012 72.0223C212.979 72.7502 213.299 73.4248 213.121 73.5846Z" fill="#263238"/>
<path d="M180.319 77.7043C180.327 78.4504 180.042 79.1698 179.526 79.7088C179.01 80.2479 178.304 80.5638 177.559 80.5893C177.195 80.6183 176.83 80.5742 176.483 80.4598C176.137 80.3454 175.817 80.1629 175.543 79.923C175.268 79.6831 175.044 79.3908 174.884 79.0631C174.724 78.7354 174.632 78.3791 174.611 78.015C174.604 77.2681 174.888 76.5478 175.404 76.0073C175.92 75.4668 176.626 75.1489 177.372 75.1212C177.736 75.0935 178.102 75.1387 178.448 75.2541C178.794 75.3695 179.114 75.5529 179.388 75.7935C179.663 76.0341 179.887 76.327 180.046 76.6551C180.206 76.9832 180.299 77.3399 180.319 77.7043Z" fill="#263238"/>
<path d="M182.877 74.1538C182.522 74.5266 180.347 72.9199 177.275 72.9288C174.204 72.9377 171.949 74.4822 171.603 74.1005C171.443 73.9318 171.798 73.2661 172.784 72.5471C174.119 71.6307 175.701 71.1416 177.32 71.1445C178.913 71.1502 180.465 71.6529 181.758 72.5826C182.726 73.3194 183.045 73.994 182.877 74.1538Z" fill="#263238"/>
<path d="M194.045 96.9824C194.045 96.8049 195.945 96.4764 199.043 96.0947C199.824 96.0059 200.569 95.855 200.702 95.3136C200.77 94.503 200.588 93.6911 200.179 92.9879C199.445 91.0882 198.67 89.0939 197.853 87.0049C194.631 78.4832 192.287 71.4795 192.634 71.3552C192.98 71.2309 195.874 78.0305 199.105 86.5433C199.88 88.6501 200.623 90.6592 201.333 92.5706C201.626 93.4583 202.141 94.4703 201.732 95.6509C201.621 95.9282 201.446 96.1759 201.223 96.3746C201 96.5732 200.733 96.7175 200.445 96.796C200.012 96.9193 199.564 96.9821 199.114 96.9824C195.989 97.1422 194.054 97.1599 194.045 96.9824Z" fill="#263238"/>
<path d="M184.99 99.1136C185.488 99.1136 185.496 102.425 188.355 104.795C191.213 107.165 194.764 106.801 194.79 107.262C194.844 107.475 194 107.91 192.5 107.955C190.543 107.982 188.638 107.319 187.121 106.082C185.664 104.892 184.728 103.183 184.511 101.315C184.387 99.8947 184.76 99.0958 184.99 99.1136Z" fill="#263238"/>
<path d="M183.667 62.0986C183.365 62.9863 180.294 62.5425 176.681 62.9863C173.068 63.4301 170.148 64.4066 169.669 63.652C169.456 63.297 169.962 62.507 171.142 61.6992C172.712 60.7074 174.487 60.0857 176.332 59.8811C178.178 59.6766 180.045 59.8946 181.794 60.5186C183.17 61.0512 183.8 61.7258 183.667 62.0986Z" fill="#263238"/>
<path d="M211.992 64.682C211.45 65.3833 209.329 64.682 206.781 64.6199C204.233 64.5578 202.076 65.0904 201.579 64.3625C201.357 64.0074 201.695 63.3061 202.645 62.6404C203.911 61.8469 205.385 61.4486 206.879 61.496C208.373 61.5434 209.819 62.0345 211.033 62.9067C211.93 63.6168 212.231 64.3891 211.992 64.682Z" fill="#263238"/>
<path d="M150.326 84.6896C149.98 84.5387 136.567 80.6241 137.011 94.312C137.455 108 151.098 104.742 151.116 104.343C151.134 103.943 150.326 84.6896 150.326 84.6896Z" fill="#D9AC9B"/>
<path d="M146.722 99.2916C146.66 99.2916 146.491 99.4691 146.092 99.6644C145.534 99.9225 144.899 99.9574 144.316 99.7621C142.851 99.2738 141.564 97.0191 141.413 94.5514C141.345 93.3791 141.536 92.2062 141.973 91.1161C142.092 90.68 142.316 90.2796 142.625 89.95C142.935 89.6205 143.32 89.3716 143.748 89.2253C144.02 89.1445 144.312 89.1615 144.573 89.2733C144.834 89.3852 145.048 89.5849 145.177 89.8378C145.372 90.2107 145.293 90.4858 145.364 90.5125C145.435 90.5391 145.657 90.2728 145.523 89.7047C145.435 89.3696 145.235 89.0749 144.955 88.8703C144.765 88.733 144.549 88.6349 144.321 88.5816C144.092 88.5283 143.855 88.5208 143.624 88.5596C143.066 88.6898 142.55 88.9604 142.126 89.3456C141.702 89.7309 141.383 90.2181 141.2 90.761C140.66 91.967 140.42 93.2856 140.499 94.6046C140.677 97.3653 142.168 99.9307 144.165 100.41C144.537 100.506 144.926 100.516 145.302 100.441C145.679 100.365 146.033 100.206 146.34 99.9751C146.704 99.6289 146.775 99.3182 146.722 99.2916Z" fill="#AA6550"/>
<path d="M142.674 84.228C144.76 83.722 148.373 85.6482 149.26 87.6011C150.148 89.554 150.343 91.7732 151.231 93.735C152.119 95.6967 154.125 97.4543 156.22 96.9572C156.928 96.7358 157.564 96.3309 158.065 95.7836C158.565 95.2363 158.912 94.5662 159.069 93.8415C159.371 92.3788 159.386 90.8715 159.114 89.4031C158.306 83.0118 156.965 76.6738 156.708 70.2293C156.451 63.7848 157.365 57.1006 160.747 51.5881C164.129 46.0757 170.334 42.0634 176.725 42.5871C180.977 42.9244 184.883 45.1436 189.108 45.7383C191.626 46.0713 194.186 45.8263 196.595 45.0218C199.003 44.2174 201.197 42.8748 203.009 41.0958C203.471 40.6431 205.601 39.2317 205.601 39.2317C205.601 38.9032 205.29 36.0449 204.163 34.9975C195.775 27.2481 180.666 25.0821 169.588 27.8961C158.51 30.71 148.124 38.5482 143.357 48.8807C138.59 59.2133 140.011 73.7356 142.638 84.2102" fill="#263238"/>
<path d="M216.794 50.4159C216.794 50.4159 164.261 33.5501 141.537 78.9636C141.537 78.9636 138.137 67.5924 138.137 61.4941C138.137 57.4197 140.569 33.1684 165.53 25.5344C165.53 25.5344 203.123 11.1895 216.794 50.4159Z" fill="#197A8A"/>
<path d="M171.629 51.5529C172.563 53.0577 173.833 54.3251 175.339 55.2553C176.846 56.1855 178.548 56.753 180.312 56.9131C182.075 57.0732 183.852 56.8215 185.502 56.1778C187.151 55.5341 188.629 54.5161 189.818 53.2039C190.34 54.51 191.258 55.6198 192.443 56.3777C193.628 57.1357 195.02 57.5037 196.425 57.4303C197.83 57.3569 199.176 56.8457 200.276 55.9683C201.375 55.091 202.173 53.8915 202.556 52.5382C203.98 54.1255 205.722 55.3957 207.669 56.2664C209.666 57.0032 212.196 56.7191 213.501 55.0503C214.806 53.3815 214.451 50.7451 213.137 49.023C211.702 47.3946 209.866 46.1705 207.811 45.4723C201.583 42.7335 194.74 41.6981 187.98 42.4719C181.278 43.3596 174.789 46.6263 170.6 51.9346" fill="#263238"/>
<g opacity="0.4">
<path d="M216.796 50.4159C212.426 45.8105 206.433 43.0883 200.09 42.8263C184.591 42.1428 155.591 50.8598 141.503 78.9636C141.503 78.9636 138.104 67.5924 138.104 61.4941C138.104 57.4197 140.536 33.1684 165.497 25.5344C165.533 25.5344 203.126 11.1895 216.796 50.4159Z" fill="black"/>
</g>
<path d="M143.732 73.647C151.517 61.7255 162.258 51.8723 174.339 44.3537C186.421 36.8351 206.385 29.352 220.144 25.7125C224.28 24.6118 228.585 23.6531 232.802 24.381C237.018 25.1089 241.137 27.9317 242.176 32.0594C243.489 37.2523 234.275 45.2591 229.952 48.4015C225.629 51.5438 216.797 56.1686 216.797 56.1686C216.797 56.1686 216.921 46.5462 201.511 44.5667C180.562 41.8238 143.732 73.647 143.732 73.647Z" fill="#197A8A"/>
<path d="M229.452 151.787L212.791 148.112L206.009 146.417L200.363 137.664C200.363 137.664 197.7 153.314 187.59 161.738C186.221 162.858 184.616 163.654 182.896 164.066C181.175 164.478 179.384 164.495 177.656 164.117C175.375 163.637 172.694 163.052 170.706 162.519C170.28 162.404 169.818 162.253 169.321 162.075C162.012 159.361 155.922 154.109 152.162 147.278C149.926 143.301 148.035 139.217 148.683 137.664L140.774 154.042L94.1706 175.506L67.709 240.146L118.99 255.308L120.588 308.568L110.93 375.712L256.003 375.81L250.854 226.423" fill="#197A8A"/>
<path d="M191.948 209.62C191.653 209.643 191.356 209.643 191.061 209.62L188.477 209.558L179.254 209.229H179.077V209.078C178.926 205.075 178.74 200.335 178.535 195.266C178.296 187.961 178.083 181.356 177.914 176.501C177.861 174.139 177.816 172.213 177.781 170.811C177.781 170.18 177.781 169.666 177.781 169.266C177.758 169.086 177.758 168.904 177.781 168.725C177.822 168.899 177.843 169.078 177.843 169.257C177.843 169.666 177.905 170.145 177.941 170.802C178.012 172.204 178.109 174.131 178.225 176.483C178.42 181.338 178.686 187.943 178.979 195.239C179.157 200.317 179.317 205.057 179.459 209.061L179.263 208.874L188.486 209.362L191.061 209.531C191.359 209.528 191.656 209.558 191.948 209.62Z" fill="#263238"/>
<path d="M184.058 188.042C184.261 187.9 184.502 187.819 184.75 187.811C185.326 187.774 185.901 187.904 186.405 188.186C186.909 188.468 187.321 188.89 187.59 189.4C187.844 189.899 187.934 190.464 187.848 191.016C187.753 191.642 187.479 192.226 187.058 192.699C186.637 193.172 186.088 193.512 185.478 193.679C184.86 193.809 184.218 193.765 183.623 193.554C183.028 193.342 182.502 192.971 182.105 192.481C181.782 192.085 181.557 191.62 181.446 191.123C181.335 190.625 181.342 190.108 181.466 189.613C181.603 188.94 181.937 188.322 182.424 187.838C182.762 187.51 183.01 187.403 183.019 187.43C183.028 187.456 182.841 187.616 182.557 187.962C182.164 188.448 181.898 189.025 181.785 189.64C181.695 190.083 181.706 190.54 181.816 190.978C181.927 191.416 182.135 191.823 182.424 192.17C182.779 192.589 183.24 192.905 183.758 193.086C184.276 193.267 184.833 193.306 185.371 193.2C185.895 193.052 186.366 192.758 186.729 192.353C187.093 191.947 187.333 191.446 187.422 190.909C187.496 190.469 187.446 190.017 187.278 189.603C187.111 189.19 186.831 188.831 186.472 188.566C185.985 188.177 185.382 187.962 184.759 187.953C184.297 187.989 184.058 188.078 184.058 188.042Z" fill="#263238"/>
<path d="M182.486 169.284C182.692 169.104 182.944 168.987 183.214 168.947C183.951 168.791 184.72 168.904 185.38 169.266C185.849 169.505 186.249 169.86 186.543 170.296C186.884 170.807 187.055 171.413 187.031 172.027C187.003 172.727 186.765 173.402 186.347 173.965C185.928 174.527 185.35 174.95 184.688 175.178C184.01 175.351 183.297 175.321 182.637 175.09C181.977 174.86 181.4 174.44 180.977 173.882C180.603 173.401 180.377 172.821 180.329 172.213C180.302 171.69 180.386 171.166 180.578 170.678C180.853 169.983 181.341 169.393 181.972 168.991C182.191 168.827 182.453 168.728 182.726 168.707C182.726 168.707 182.469 168.84 182.078 169.142C181.529 169.565 181.115 170.138 180.889 170.793C180.71 171.262 180.656 171.769 180.731 172.265C180.805 172.761 181.006 173.229 181.315 173.625C181.69 174.103 182.195 174.463 182.77 174.66C183.345 174.857 183.965 174.883 184.555 174.734C185.126 174.532 185.625 174.165 185.99 173.68C186.355 173.196 186.569 172.615 186.605 172.009C186.629 171.512 186.512 171.018 186.269 170.583C186.026 170.148 185.666 169.79 185.229 169.55C184.633 169.199 183.938 169.049 183.25 169.124C182.762 169.186 182.504 169.32 182.486 169.284Z" fill="#263238"/>
<path d="M177.764 240.929C177.764 240.929 177.835 240.885 177.986 240.832L178.651 240.574C179.246 240.37 180.089 239.997 181.163 239.5C184.163 237.988 186.916 236.031 189.33 233.695C192.879 230.2 196.015 226.31 198.677 222.102C202.007 216.985 205.048 211.686 207.785 206.23C212.707 196.285 217.026 186.052 220.718 175.587C222.165 171.575 223.293 168.317 224.083 166.071L224.97 163.479C225.068 163.213 225.157 162.991 225.219 162.814C225.244 162.737 225.277 162.662 225.316 162.592C225.31 162.674 225.292 162.754 225.263 162.831C225.21 163.009 225.139 163.231 225.059 163.515C224.855 164.145 224.58 165.015 224.233 166.178C223.497 168.442 222.414 171.717 220.993 175.738C217.397 186.231 213.121 196.479 208.193 206.416C205.449 211.888 202.39 217.197 199.032 222.315C196.339 226.546 193.157 230.446 189.552 233.934C187.1 236.266 184.296 238.199 181.243 239.66C180.408 240.043 179.552 240.378 178.678 240.663L177.994 240.876C177.921 240.905 177.843 240.923 177.764 240.929Z" fill="#263238"/>
<path d="M176.219 260.45C176.37 260.305 176.537 260.177 176.716 260.068L178.207 259.038C179.494 258.151 181.35 256.819 183.578 255.106C188.016 251.706 193.928 246.629 200.248 240.823C203.408 237.92 206.462 235.186 209.072 232.559C211.413 230.255 213.588 227.787 215.578 225.173C216.914 223.41 218.102 221.54 219.129 219.581C219.52 218.898 219.759 218.338 219.946 217.965C220.03 217.769 220.134 217.582 220.256 217.406C220.199 217.61 220.125 217.809 220.034 218.001C219.875 218.383 219.653 218.96 219.289 219.661C218.314 221.664 217.158 223.575 215.836 225.369C213.872 228.027 211.709 230.531 209.365 232.861C206.746 235.524 203.71 238.267 200.55 241.16C194.23 246.966 188.309 252.026 183.773 255.363C181.509 257.041 179.619 258.319 178.305 259.18C177.639 259.606 177.115 259.917 176.76 260.139C176.592 260.263 176.41 260.367 176.219 260.45Z" fill="#263238"/>
<path d="M151.332 359.095C151.332 359.095 151.332 359.015 151.439 358.882C151.545 358.749 151.66 358.535 151.802 358.296C152.131 357.79 152.628 357.044 153.294 356.103C154.625 354.239 156.685 351.612 159.401 348.522C164.869 342.389 172.53 334.018 180.963 324.751L202.702 301.058L209.315 293.957L211.09 292.031L211.57 291.543L211.747 291.383C211.747 291.383 211.703 291.454 211.605 291.569L211.161 292.093L209.386 294.081L202.879 301.316L181.309 325.035L159.65 348.718C156.907 351.771 154.812 354.355 153.436 356.183C152.752 357.071 152.229 357.825 151.882 358.322L151.483 358.882C151.438 358.957 151.388 359.028 151.332 359.095Z" fill="#263238"/>
<path d="M228.299 151.383C229.062 152.528 246.212 154.436 250.411 158.626C254.61 162.816 296.57 194.843 296.57 194.843L266.664 235.091L247.366 230.839L228.299 151.383Z" fill="#197A8A"/>
<path opacity="0.4" d="M291.485 190.934L257.957 233.169L266.665 235.087L296.535 194.795L291.485 190.934Z" fill="black"/>
<path d="M237.436 193.278C237.286 192.82 237.17 192.351 237.09 191.875C236.992 191.423 236.877 190.863 236.797 190.206C236.717 189.55 236.584 188.804 236.539 187.969C236.495 187.135 236.406 186.194 236.406 185.244C236.406 184.294 236.406 183.22 236.486 182.12C236.659 179.726 237.03 177.351 237.596 175.018C238.2 172.698 238.999 170.432 239.984 168.245C240.454 167.251 240.871 166.292 241.377 165.44C241.883 164.588 242.318 163.798 242.771 163.097C243.224 162.396 243.659 161.792 244.049 161.25C244.372 160.786 244.719 160.339 245.088 159.91C245.378 159.525 245.702 159.165 246.055 158.836C245.813 159.251 245.537 159.646 245.23 160.017C244.955 160.389 244.617 160.842 244.262 161.401C243.907 161.961 243.454 162.555 243.046 163.274C242.638 163.993 242.158 164.757 241.715 165.627C241.271 166.497 240.827 167.402 240.374 168.414C239.439 170.592 238.674 172.838 238.084 175.134C237.531 177.436 237.154 179.778 236.957 182.137C236.894 183.229 236.815 184.268 236.841 185.235C236.868 186.203 236.841 187.108 236.912 187.898C236.983 188.688 237.036 189.47 237.099 190.127C237.161 190.783 237.241 191.343 237.312 191.795C237.401 192.284 237.442 192.781 237.436 193.278Z" fill="#263238"/>
<path d="M250.855 226.372C249.48 223.706 248.245 220.972 247.154 218.178C245.917 215.449 244.821 212.658 243.869 209.816C245.244 212.48 246.482 215.212 247.58 218.001C248.818 220.731 249.912 223.525 250.855 226.372Z" fill="#263238"/>
<path d="M118.991 197.131C118.92 197.131 118.201 195.844 116.843 193.846C115.071 191.245 113.043 188.827 110.789 186.63C108.524 184.449 106.051 182.495 103.404 180.798C101.362 179.502 100.022 178.827 100.057 178.756C100.398 178.85 100.725 178.984 101.034 179.155C101.902 179.568 102.75 180.024 103.573 180.522C106.303 182.15 108.835 184.089 111.118 186.301C113.393 188.52 115.406 190.992 117.118 193.669C117.766 194.699 118.255 195.551 118.556 196.163C118.741 196.467 118.887 196.792 118.991 197.131Z" fill="#263238"/>
<path opacity="0.4" d="M67.709 240.121L69.7773 235.088L126.5 250.533L124.254 256.845L67.709 240.121Z" fill="black"/>
<g opacity="0.2">
<path d="M142.107 155.994C142.889 162.918 143.741 170.064 147.167 176.135C150.594 182.207 157.296 186.992 164.193 185.971C168.791 185.287 172.688 182.216 175.821 178.772C178.955 175.328 181.582 171.431 185 168.28C187.067 170.505 189.377 172.491 191.888 174.2C194.425 175.919 197.471 176.723 200.525 176.482C203.535 176.118 205.195 174.919 206.144 172.043C202.931 173.037 201.164 172.887 197.96 172.274C194.422 171.596 191.099 170.073 188.275 167.836C186.394 166.353 185.71 164.125 183.322 164.285C181.112 164.409 179.381 166.158 177.925 167.836C175.575 170.526 172.997 173.009 170.22 175.257C167.557 177.36 164.983 178.807 161.592 178.71C156.008 178.585 151.437 174.2 148.357 169.54C145.513 165.243 143.413 160.499 142.143 155.506" fill="black"/>
</g>
<g clip-path="url(#clip3_1075_71755)">
<path d="M150.019 227.351C150.079 228.348 149.395 229.259 148.91 229.732C148.071 230.549 146.759 231.55 145.01 231.382C144.114 231.31 143.274 230.987 142.615 230.461C141.794 229.815 141.274 228.666 141.214 227.665C141.12 226.105 141.737 225.489 142.221 225.015C143.083 224.172 144.923 223.255 146.208 223.346C147.108 223.406 147.952 223.731 148.602 224.267C149.408 224.899 149.945 226.105 150.019 227.351ZM147.718 227.5C147.618 225.932 146.674 223.712 145.396 223.789C144.588 223.837 143.435 225.068 143.517 227.514C143.602 229.097 144.562 231.14 145.83 231.065C146.784 231.018 147.8 229.935 147.718 227.496L147.718 227.5Z" fill="white"/>
<path d="M159.381 226.789C159.44 227.786 158.756 228.697 158.271 229.169C157.432 229.987 156.12 230.988 154.37 230.82C153.474 230.747 152.635 230.424 151.977 229.898C151.156 229.252 150.635 228.104 150.575 227.102C150.482 225.543 151.099 224.927 151.582 224.453C152.444 223.61 154.284 222.692 155.57 222.783C156.469 222.843 157.313 223.168 157.963 223.704C158.769 224.337 159.306 225.542 159.381 226.789ZM157.08 226.938C156.979 225.37 156.036 223.15 154.757 223.226C153.948 223.275 152.797 224.505 152.879 226.951C152.963 228.535 153.923 230.578 155.192 230.502C156.145 230.455 157.161 229.372 157.079 226.933L157.08 226.938Z" fill="white"/>
<path d="M162.145 223.054L162.455 228.234L162.956 230.155L162.967 230.337C161.847 230.654 160.516 230.246 160.422 228.681L160.093 223.176L159.067 223.238L159.05 222.955C159.582 222.923 160.791 222.438 161.766 220.84L162.011 220.826L162.125 222.719L163.535 222.635L163.555 222.969L162.145 223.054Z" fill="white"/>
<path d="M171.445 227.479L171.855 227.618C171.682 227.883 171.478 228.133 171.246 228.363C170.407 229.18 169.094 230.182 167.345 230.013C166.449 229.941 165.609 229.618 164.951 229.092C164.129 228.446 163.61 227.297 163.55 226.297C163.456 224.732 164.073 224.12 164.557 223.647C165.419 222.804 167.257 221.886 168.544 221.976C169.444 222.038 170.287 222.362 170.938 222.897C171.27 223.159 172.234 224.104 172.335 225.799L165.867 226.186C166.707 229.154 170.54 228.977 171.445 227.479ZM165.793 225.743L169.984 225.492C169.682 223.242 168.525 222.32 167.507 222.453C166.344 222.606 165.445 224.04 165.793 225.743Z" fill="white"/>
<path d="M181.419 229.055C181.228 229.067 181.123 228.751 181.055 228.318C180.999 227.962 180.918 227.134 180.918 227.134L180.734 221.903L180.549 218.811L178.4 219.468L178.615 222.791C178.237 222.478 177.517 221.812 176.562 221.744C174.553 221.603 172.833 223.384 172.981 225.855C173.122 228.211 174.989 229.303 176.314 229.457C176.855 229.513 177.406 229.413 177.882 229.174L179.066 228.597C179.049 228.606 179.197 228.761 179.206 228.774C179.578 229.165 180.156 229.228 180.714 229.228C180.954 229.228 181.192 229.195 181.421 229.13L181.419 229.055ZM177.562 228.905C177.342 228.985 177.104 229.019 176.867 229.004C176.152 228.934 175.717 228.29 175.493 227.769C175.229 227.116 175.079 226.43 175.05 225.735C174.979 224.558 174.966 222.357 176.624 222.258C177.277 222.218 178.249 223.061 178.574 223.364C178.575 223.371 178.588 223.375 178.501 223.387L178.893 227.789L178.913 228.123C178.9 228.135 178.891 228.149 178.888 228.165C178.884 228.181 178.885 228.198 178.892 228.213C178.895 228.267 178.074 228.675 177.975 228.726C177.843 228.795 177.705 228.855 177.562 228.905Z" fill="white"/>
<path d="M140.194 229.146C139.219 228.143 137.83 227.118 136.375 226.868C137.826 226.373 139.811 225.389 139.713 223.768C139.572 221.411 136.471 221.012 134.585 221.125L130.898 221.346L130.918 221.667C131.106 221.655 131.333 223.856 131.521 226.326C131.539 226.583 131.626 226.831 131.775 227.052C131.924 227.273 132.13 227.459 132.377 227.597C132.855 227.843 133.374 228.024 133.917 228.135C134.948 228.369 136.135 228.627 137.031 229.158C138.057 229.767 138.639 230.845 139.109 231.813L141.771 231.653C141.401 230.749 140.869 229.903 140.194 229.146ZM134.048 226.671L133.746 221.622C133.746 221.622 137.063 221.127 137.227 223.874C137.413 226.769 134.048 226.671 134.048 226.671Z" fill="white"/>
<path d="M133.699 230.259C133.635 230.036 133.523 229.827 133.367 229.643L132.543 228.515L132.286 228.53L131.603 229.749C131.47 229.95 131.383 230.171 131.347 230.4C131.271 231.289 132.442 232.012 132.63 232.137C132.804 231.99 133.883 231.133 133.699 230.259Z" fill="white"/>
</g>
<path d="M207.475 147.359C207.525 147.521 207.558 147.688 207.572 147.856C207.572 148.185 207.679 148.664 207.741 149.286C207.874 150.528 208.007 152.33 208.061 154.612C208.181 160.447 207.624 166.277 206.401 171.984V172.126V172.268H206.267C203.112 173.007 199.818 172.919 196.707 172.01C194.163 171.33 191.759 170.206 189.606 168.69C188.148 167.7 186.842 166.504 185.727 165.14C185.427 164.771 185.148 164.386 184.892 163.986C184.793 163.849 184.707 163.703 184.635 163.551C186.083 165.444 187.82 167.098 189.783 168.451C191.925 169.897 194.296 170.972 196.796 171.628C199.84 172.488 203.053 172.565 206.134 171.85L205.966 172.019V171.877C207.174 166.199 207.77 160.408 207.741 154.603C207.741 152.375 207.643 150.573 207.572 149.321C207.572 148.744 207.51 148.274 207.484 147.892C207.455 147.716 207.452 147.536 207.475 147.359Z" fill="#263238"/>
<path d="M180.508 164.871C180.438 165.06 180.342 165.239 180.224 165.403C179.927 165.896 179.601 166.37 179.248 166.824C177.922 168.478 176.461 170.019 174.88 171.431C173.895 172.318 172.786 173.304 171.587 174.316C170.984 174.822 170.38 175.354 169.705 175.887C169.011 176.411 168.278 176.883 167.513 177.298C165.87 178.204 164.056 178.758 162.187 178.923C160.148 179.096 158.104 178.644 156.328 177.627C154.599 176.597 153.049 175.293 151.739 173.765C150.496 172.382 149.34 170.923 148.277 169.398C146.484 166.81 144.97 164.04 143.759 161.134C142.947 159.18 142.282 157.168 141.77 155.115C141.584 154.387 141.468 153.819 141.397 153.429C141.348 153.234 141.318 153.035 141.309 152.834C141.39 153.019 141.449 153.212 141.486 153.411C141.593 153.793 141.735 154.352 141.939 155.071C142.521 157.093 143.23 159.076 144.06 161.009C145.304 163.871 146.836 166.598 148.632 169.149C149.691 170.654 150.841 172.092 152.076 173.455C153.344 174.942 154.842 176.216 156.514 177.227C158.213 178.197 160.166 178.631 162.116 178.47C163.931 178.314 165.695 177.788 167.3 176.926C168.053 176.526 168.774 176.069 169.457 175.558C170.105 175.061 170.726 174.52 171.33 174.023C172.537 173.02 173.655 172.079 174.65 171.191C176.236 169.823 177.72 168.339 179.088 166.753C179.559 166.185 179.905 165.714 180.136 165.395C180.244 165.21 180.369 165.034 180.508 164.871Z" fill="#263238"/>
<path d="M161.387 266.868L168.231 256.891C168.231 256.891 172.935 240.54 172.296 238.25C171.657 235.959 169.58 227.438 170.068 227.331C170.556 227.225 175.678 225.325 178.457 232.16C180.188 236.421 180.756 242.031 180.942 245.653C180.963 246.1 181.08 246.538 181.286 246.936C181.491 247.334 181.781 247.682 182.135 247.957C182.488 248.232 182.897 248.428 183.333 248.529C183.77 248.631 184.223 248.637 184.662 248.547C189.393 247.57 197.267 246.088 199.14 246.541C201.856 247.189 204.288 250.65 204.519 251.813C204.75 252.976 202.886 255.595 202.886 255.595C202.886 255.595 205.193 256.775 205.904 258.56C206.001 258.799 206.081 259.039 206.152 259.27C206.369 259.985 206.395 260.744 206.229 261.473C206.062 262.202 205.708 262.874 205.202 263.424L204.474 264.223C204.474 264.223 207.359 265.013 207.715 266.664C207.907 267.87 207.874 269.101 207.617 270.295L204.909 273.091C205.664 273.795 206.158 274.733 206.312 275.754C206.454 277.281 202.397 281.08 202.397 281.08L184.99 287.294L178.084 289.069L161.387 266.868Z" fill="#D9AC9B"/>
<path d="M202.94 255.61C200.951 256.146 198.936 256.581 196.904 256.915C194.907 257.403 192.886 257.788 190.85 258.069C191.395 257.803 191.97 257.603 192.563 257.474C193.637 257.173 195.137 256.8 196.815 256.462C198.492 256.125 200.01 255.877 201.129 255.735C201.724 255.612 202.333 255.57 202.94 255.61Z" fill="#AA6550"/>
<path d="M204.527 264.223C203.047 264.916 201.505 265.466 199.92 265.865C198.382 266.417 196.794 266.821 195.18 267.072C196.659 266.378 198.202 265.828 199.787 265.43C201.325 264.878 202.912 264.474 204.527 264.223Z" fill="#AA6550"/>
<path d="M205.566 272.719C204.007 273.653 202.371 274.451 200.675 275.107C199.042 275.906 197.343 276.566 195.598 277.077C197.157 276.143 198.793 275.345 200.489 274.689C202.122 273.89 203.821 273.23 205.566 272.719Z" fill="#AA6550"/>
<path d="M121.281 328.525L185.301 285.579L169.145 256.286L110.718 286.334L117.349 254.768L77.6966 243.033L67.7724 297.093C66.2456 321.131 85.5259 340.536 108.765 334.224C113.22 333.019 117.448 331.094 121.281 328.525Z" fill="#D9AC9B"/>
<path d="M102.258 303.324C102.142 303.068 102.067 302.795 102.036 302.516C101.904 301.768 101.83 301.012 101.814 300.252C101.78 297.727 102.346 295.229 103.465 292.965C104.599 290.706 106.258 288.752 108.303 287.266C108.912 286.814 109.56 286.416 110.238 286.076C110.481 285.934 110.745 285.829 111.019 285.766C111.019 285.846 109.981 286.351 108.498 287.541C106.557 289.057 104.979 290.987 103.879 293.191C102.78 295.395 102.186 297.817 102.142 300.279C102.098 302.143 102.391 303.315 102.258 303.324Z" fill="#AA6550"/>
<path d="M266.666 235.089C267.065 234.539 312.257 262.075 312.257 262.075L326.744 328.073L347.595 335.725C347.595 335.725 354.102 262.279 349.149 250.845C344.196 239.412 293.98 198.277 293.98 198.277L266.666 235.089Z" fill="#D9AC9B"/>
<path d="M322.126 257.014C321.12 258.527 319.781 259.79 318.211 260.706C316.723 261.754 315.018 262.452 313.223 262.748C314.844 262.021 316.427 261.209 317.963 260.316C319.411 259.294 320.801 258.191 322.126 257.014Z" fill="#AA6550"/>
<path d="M212.312 235.23L215.854 298.575L288.076 293.693L285.892 246.539L275.373 232.381L212.312 235.23Z" fill="#C19247"/>
<path d="M195.9 299.986C196.113 301.203 202.247 358.573 202.247 358.573L309.736 351.108L327.924 348.667L319.536 295.246L306.691 292.166L195.9 299.986Z" fill="#E79468"/>
<path opacity="0.4" d="M306.691 292.158L195.9 299.988C196.113 301.204 202.247 358.574 202.247 358.574L314.157 350.789L306.691 292.158Z" fill="black"/>
<path d="M259.294 308.198C257.865 306.934 256.026 306.173 254.077 306.04C251.286 305.84 247.345 308.041 245.511 310.053C244.48 311.187 243.169 312.644 243.433 316.36C243.602 318.736 244.774 321.458 246.577 322.984C248.039 324.247 249.791 324.944 251.795 325.145C255.588 325.527 258.391 323.132 260.178 321.181C261.209 320.054 262.655 317.881 262.486 315.513C262.273 312.553 261.061 309.694 259.294 308.198ZM252.228 311.17C252.604 310.756 253.414 310.304 253.987 310.346C254.387 310.374 254.765 310.53 255.058 310.791C255.421 311.096 255.67 311.683 255.713 312.291C255.748 312.777 255.446 313.223 255.241 313.455C254.873 313.854 254.298 314.346 253.521 314.268C253.123 314.235 252.747 314.08 252.452 313.825C252.081 313.511 251.84 312.951 251.805 312.465C251.747 311.702 252.016 311.402 252.228 311.17ZM250.75 320.927C250.598 320.817 249.649 320.19 249.699 319.412C249.725 319.211 249.792 319.017 249.895 318.839L250.424 317.768L250.626 317.754L251.301 318.739C251.428 318.9 251.522 319.083 251.576 319.279C251.734 320.042 250.884 320.797 250.75 320.927ZM254.964 320.689C254.957 320.69 254.718 320.026 254.691 319.975C254.244 318.999 253.533 318.156 252.629 317.532C252.175 317.216 251.679 316.959 251.153 316.768C250.592 316.565 249.978 316.469 249.476 316.14C248.672 315.614 248.727 314.546 248.72 313.715C248.876 313.426 252.893 315.221 253.348 315.45C254.5 316.028 255.282 316.849 256.061 317.825C256.066 317.833 256.072 317.84 256.079 317.847C256.651 318.661 257.097 319.55 257.402 320.488L254.964 320.689Z" fill="#263238"/>
<g clip-path="url(#clip4_1075_71755)">
<path d="M246.85 340.604C246.945 341.947 246.16 343.177 245.599 343.816C244.629 344.92 243.105 346.272 241.036 346.051C239.977 345.957 238.977 345.524 238.186 344.817C237.201 343.949 236.557 342.403 236.462 341.053C236.312 338.952 237.025 338.119 237.585 337.479C238.581 336.34 240.73 335.098 242.25 335.217C243.314 335.295 244.318 335.73 245.099 336.451C246.067 337.301 246.73 338.924 246.85 340.604ZM244.137 340.811C243.979 338.698 242.81 335.71 241.302 335.817C240.35 335.884 239.019 337.546 239.177 340.842C239.317 342.976 240.501 345.727 241.997 345.621C243.121 345.555 244.294 344.092 244.136 340.805L244.137 340.811Z" fill="#263238"/>
<path d="M257.891 339.819C257.986 341.162 257.201 342.392 256.64 343.031C255.67 344.134 254.146 345.487 252.076 345.266C251.017 345.172 250.017 344.739 249.227 344.032C248.242 343.164 247.598 341.618 247.503 340.268C247.353 338.166 248.066 337.334 248.626 336.694C249.622 335.555 251.771 334.313 253.291 334.432C254.355 334.51 255.359 334.945 256.14 335.666C257.108 336.516 257.771 338.139 257.891 339.819ZM255.178 340.026C255.02 337.913 253.851 334.924 252.343 335.031C251.389 335.099 250.06 336.761 250.218 340.057C250.358 342.191 251.542 344.942 253.038 344.836C254.162 344.77 255.335 343.307 255.177 340.02L255.178 340.026Z" fill="#263238"/>
<path d="M261.057 334.774L261.552 341.754L262.192 344.342L262.21 344.588C260.895 345.018 259.314 344.472 259.164 342.363L258.638 334.946L257.428 335.032L257.401 334.65C258.028 334.606 259.444 333.949 260.555 331.792L260.844 331.772L261.025 334.324L262.688 334.206L262.72 334.656L261.057 334.774Z" fill="#263238"/>
<path d="M272.148 340.71L272.636 340.895C272.438 341.254 272.203 341.591 271.935 341.902C270.965 343.005 269.44 344.36 267.371 344.137C266.311 344.044 265.312 343.611 264.522 342.903C263.535 342.035 262.893 340.489 262.798 339.141C262.648 337.031 263.361 336.205 263.921 335.567C264.917 334.428 267.064 333.184 268.586 333.303C269.649 333.382 270.653 333.817 271.435 334.537C271.834 334.889 272.995 336.159 273.158 338.443L265.531 338.984C266.596 342.982 271.117 342.732 272.148 340.71ZM265.432 338.388L270.374 338.037C269.961 335.005 268.572 333.765 267.374 333.948C266.004 334.157 264.979 336.093 265.432 338.388Z" fill="#263238"/>
<path d="M283.966 342.804C283.74 342.82 283.608 342.395 283.517 341.811C283.442 341.332 283.326 340.217 283.326 340.217L282.977 333.167L282.681 329L280.161 329.892L280.498 334.37C280.044 333.95 279.178 333.053 278.049 332.965C275.673 332.782 273.687 335.187 273.923 338.517C274.149 341.692 276.38 343.157 277.948 343.361C278.588 343.434 279.236 343.299 279.793 342.975L281.176 342.193C281.156 342.205 281.335 342.414 281.345 342.432C281.794 342.958 282.478 343.041 283.137 343.039C283.42 343.038 283.701 342.992 283.97 342.905L283.966 342.804ZM279.408 342.613C279.15 342.722 278.869 342.768 278.59 342.748C277.744 342.657 277.215 341.79 276.937 341.088C276.609 340.209 276.415 339.285 276.363 338.348C276.25 336.763 276.179 333.796 278.134 333.657C278.904 333.602 280.072 334.735 280.464 335.142C280.465 335.151 280.481 335.158 280.378 335.174L280.952 341.105L280.984 341.555C280.969 341.571 280.958 341.591 280.954 341.612C280.95 341.634 280.952 341.656 280.96 341.676C280.965 341.75 280.006 342.302 279.891 342.371C279.737 342.464 279.575 342.545 279.408 342.613Z" fill="#263238"/>
<path d="M235.294 343.053C234.118 341.703 232.453 340.326 230.729 339.995C232.429 339.323 234.748 337.991 234.593 335.807C234.367 332.63 230.696 332.102 228.472 332.26L224.125 332.568L224.156 333.001C224.378 332.985 224.701 335.951 224.984 339.279C225.013 339.625 225.122 339.959 225.303 340.256C225.483 340.553 225.731 340.804 226.027 340.989C226.597 341.319 227.215 341.562 227.859 341.709C229.082 342.022 230.489 342.365 231.561 343.078C232.787 343.897 233.501 345.347 234.08 346.65L237.219 346.427C236.76 345.209 236.11 344.07 235.294 343.053ZM227.977 339.736L227.494 332.933C227.494 332.933 231.397 332.254 231.66 335.956C231.952 339.858 227.977 339.736 227.977 339.736Z" fill="#263238"/>
<path d="M227.653 344.573C227.573 344.273 227.435 343.991 227.246 343.744L226.245 342.226L225.943 342.247L225.166 343.891C225.014 344.163 224.917 344.462 224.88 344.77C224.813 345.968 226.213 346.938 226.438 347.107C226.64 346.908 227.893 345.749 227.653 344.573Z" fill="#263238"/>
</g>
<path d="M242.645 296.623L243.941 309.929L247.225 308.047L249.045 309.929L251.308 308.047L254.806 309.929V296.072L242.645 296.623Z" fill="#E79468"/>
<path d="M277.246 294.421L215.854 298.575L212.312 235.23L275.373 232.381L277.246 294.421Z" fill="#E7B056"/>
<path d="M250.506 252.394C249.405 251.371 247.97 250.736 246.438 250.594C244.242 250.383 241.095 252.041 239.611 253.592C238.778 254.465 237.717 255.588 237.854 258.521C237.941 260.396 238.812 262.563 240.203 263.8C241.331 264.823 242.698 265.406 244.273 265.603C247.254 265.976 249.508 264.143 250.954 262.64C251.788 261.772 252.968 260.088 252.881 258.218C252.77 255.882 251.87 253.607 250.506 252.394ZM244.882 254.6C245.186 254.281 245.833 253.941 246.284 253.985C246.598 254.014 246.893 254.145 247.119 254.356C247.399 254.604 247.584 255.07 247.607 255.551C247.624 255.934 247.378 256.28 247.212 256.458C246.915 256.766 246.452 257.143 245.841 257.066C245.528 257.033 245.236 256.903 245.008 256.696C244.721 256.442 244.542 255.996 244.524 255.613C244.493 255.01 244.711 254.779 244.882 254.6ZM243.53 262.259C243.413 262.17 242.677 261.657 242.732 261.045C242.756 260.887 242.812 260.736 242.897 260.598L243.335 259.764L243.493 259.757L244.007 260.546C244.104 260.675 244.174 260.821 244.213 260.976C244.323 261.581 243.639 262.159 243.53 262.259ZM246.856 262.153C246.849 262.153 246.674 261.626 246.654 261.585C246.32 260.807 245.776 260.13 245.076 259.621C244.725 259.363 244.339 259.151 243.928 258.99C243.49 258.82 243.008 258.732 242.618 258.463C241.995 258.033 242.059 257.193 242.07 256.539C242.198 256.313 245.328 257.805 245.683 257.994C246.579 258.471 247.179 259.133 247.774 259.917C247.778 259.923 247.783 259.929 247.788 259.935C248.223 260.587 248.557 261.296 248.78 262.04L246.856 262.153Z" fill="#197A8A"/>
<g clip-path="url(#clip5_1075_71755)">
<path d="M240.08 277.684C240.129 278.744 239.487 279.698 239.033 280.19C238.248 281.041 237.021 282.078 235.396 281.864C234.563 281.769 233.783 281.409 233.174 280.837C232.414 280.134 231.937 278.904 231.887 277.839C231.81 276.18 232.387 275.538 232.84 275.044C233.647 274.166 235.364 273.229 236.56 273.351C237.396 273.433 238.179 273.796 238.78 274.378C239.526 275.067 240.018 276.358 240.08 277.684ZM237.939 277.795C237.855 276.128 236.991 273.75 235.801 273.806C235.049 273.841 233.969 275.125 234.031 277.725C234.1 279.409 234.98 281.598 236.16 281.544C237.048 281.513 237.999 280.383 237.938 277.791L237.939 277.795Z" fill="#197A8A"/>
<path d="M248.793 277.279C248.842 278.34 248.2 279.293 247.746 279.786C246.961 280.637 245.734 281.674 244.107 281.46C243.275 281.365 242.495 281.005 241.887 280.433C241.127 279.73 240.65 278.499 240.6 277.434C240.523 275.776 241.1 275.134 241.553 274.64C242.36 273.762 244.077 272.825 245.273 272.947C246.109 273.029 246.892 273.391 247.493 273.974C248.239 274.662 248.731 275.954 248.793 277.279ZM246.652 277.391C246.568 275.723 245.704 273.346 244.514 273.402C243.761 273.437 242.682 274.721 242.744 277.32C242.813 279.004 243.693 281.194 244.873 281.139C245.76 281.109 246.712 279.979 246.651 277.386L246.652 277.391Z" fill="#197A8A"/>
<path d="M251.384 273.367L251.641 278.876L252.095 280.927L252.104 281.121C251.061 281.434 249.825 280.974 249.748 279.31L249.475 273.456L248.521 273.5L248.507 273.199C249.002 273.176 250.129 272.686 251.046 271.008L251.274 270.997L251.368 273.012L252.681 272.95L252.697 273.306L251.384 273.367Z" fill="#197A8A"/>
<path d="M260.009 278.253L260.39 278.409C260.227 278.688 260.035 278.949 259.818 279.188C259.033 280.039 257.805 281.077 256.18 280.862C255.347 280.768 254.567 280.408 253.959 279.835C253.198 279.132 252.722 277.902 252.672 276.838C252.595 275.173 253.173 274.536 253.626 274.044C254.433 273.165 256.148 272.227 257.345 272.349C258.181 272.433 258.964 272.795 259.566 273.376C259.873 273.661 260.764 274.685 260.848 276.487L254.829 276.767C255.591 279.937 259.158 279.827 260.009 278.253ZM254.763 276.295L258.662 276.114C258.395 273.717 257.325 272.714 256.377 272.835C255.294 272.973 254.45 274.479 254.763 276.295Z" fill="#197A8A"/>
<path d="M269.28 280.131C269.102 280.14 269.006 279.802 268.945 279.341C268.895 278.962 268.826 278.081 268.826 278.081L268.686 272.52L268.533 269.231L266.53 269.886L266.71 273.421C266.36 273.081 265.695 272.358 264.807 272.266C262.938 272.076 261.328 273.934 261.45 276.561C261.567 279.067 263.297 280.264 264.528 280.455C265.032 280.525 265.544 280.431 265.989 280.186L267.094 279.597C267.078 279.606 267.215 279.774 267.223 279.788C267.566 280.211 268.103 280.29 268.623 280.301C268.846 280.305 269.068 280.275 269.281 280.211L269.28 280.131ZM265.693 279.894C265.488 279.975 265.266 280.006 265.046 279.984C264.381 279.897 263.981 279.203 263.775 278.645C263.534 277.946 263.399 277.214 263.375 276.475C263.317 275.224 263.318 272.885 264.861 272.813C265.468 272.785 266.367 273.7 266.668 274.028C266.669 274.035 266.681 274.04 266.6 274.051L266.938 278.735L266.955 279.09C266.942 279.103 266.934 279.118 266.93 279.135C266.927 279.152 266.928 279.169 266.934 279.185C266.937 279.243 266.17 279.66 266.078 279.712C265.955 279.782 265.826 279.843 265.693 279.894Z" fill="#197A8A"/>
<path d="M230.931 279.395C230.03 278.309 228.745 277.192 227.393 276.897C228.745 276.401 230.597 275.396 230.517 273.672C230.4 271.165 227.518 270.678 225.763 270.76L222.332 270.92L222.348 271.261C222.523 271.253 222.721 273.596 222.88 276.223C222.896 276.496 222.976 276.762 223.112 276.999C223.249 277.237 223.44 277.439 223.669 277.591C224.112 277.862 224.594 278.065 225.099 278.193C226.056 278.463 227.158 278.761 227.989 279.343C228.94 280.011 229.474 281.167 229.905 282.205L232.382 282.09C232.044 281.121 231.554 280.212 230.931 279.395ZM225.23 276.641L224.979 271.272C224.979 271.272 228.067 270.812 228.203 273.733C228.359 276.813 225.23 276.641 225.23 276.641Z" fill="#197A8A"/>
<path d="M224.881 280.444C224.824 280.206 224.72 279.982 224.577 279.783L223.817 278.568L223.578 278.579L222.935 279.859C222.81 280.071 222.728 280.304 222.693 280.546C222.617 281.489 223.702 282.28 223.875 282.417C224.038 282.265 225.048 281.376 224.881 280.444Z" fill="#197A8A"/>
</g>
<path d="M235.205 234.201L236.501 250.17L239.785 248.288L241.605 250.17L243.869 248.288L247.366 250.17V233.65L235.205 234.201Z" fill="#263238"/>
<path d="M323.786 368.382C323.786 368.382 343.625 355.253 345.152 348.542C346.679 341.832 347.593 335.724 347.593 335.724L326.396 326.945L328.499 334.579C328.499 334.579 320.901 339.098 320.12 344.575C319.605 348.223 309.778 354.472 309.778 354.472C308.961 353.484 307.921 352.704 306.743 352.197C305.566 351.689 304.285 351.468 303.005 351.552L294.75 352.138L300.333 364.716L323.786 368.382Z" fill="#D9AC9B"/>
<path d="M331.537 350.389C331.248 350.565 330.934 350.694 330.604 350.77C329.983 350.975 329.06 351.179 327.941 351.534C326.679 351.983 325.511 352.663 324.497 353.54C323.22 354.629 321.79 355.526 320.254 356.203C317.412 357.413 314.257 357.678 311.253 356.957C310.725 356.856 310.218 356.667 309.753 356.398C309.562 356.29 309.408 356.128 309.31 355.932C309.212 355.736 309.174 355.515 309.203 355.298C309.218 355.162 309.266 355.033 309.343 354.922C309.421 354.81 309.525 354.72 309.646 354.658C309.824 354.596 309.922 354.658 309.922 354.658C309.922 354.658 309.824 354.658 309.691 354.756C309.598 354.824 309.521 354.911 309.468 355.013C309.414 355.115 309.384 355.227 309.38 355.342C309.363 355.525 309.404 355.709 309.496 355.868C309.588 356.027 309.728 356.153 309.895 356.23C310.349 356.452 310.833 356.605 311.333 356.682C314.27 357.28 317.32 356.971 320.077 355.795C321.578 355.126 322.977 354.247 324.231 353.185C325.294 352.302 326.518 351.633 327.835 351.214C328.971 350.895 329.894 350.744 330.498 350.584C330.838 350.491 331.186 350.426 331.537 350.389Z" fill="#AA6550"/>
<path d="M317.796 360.569C317.796 360.64 316.775 360.054 315.088 359.353C312.889 358.454 310.572 357.877 308.209 357.64C307.516 357.569 306.833 357.551 306.176 357.533H306.052L305.981 357.427C304.953 355.818 303.714 354.355 302.297 353.077C301.223 352.11 300.521 351.612 300.521 351.559C300.521 351.506 300.735 351.63 301.072 351.843C301.551 352.153 302.013 352.488 302.457 352.846C303.97 354.08 305.279 355.545 306.336 357.187L306.149 357.081C306.824 357.081 307.516 357.081 308.227 357.187C310.637 357.419 312.992 358.053 315.195 359.06C315.858 359.362 316.501 359.706 317.121 360.09C317.369 360.213 317.597 360.375 317.796 360.569Z" fill="#AA6550"/>
<path d="M323.156 356.967C323.156 357.091 321.816 357.597 320.253 358.485C318.691 359.372 317.546 360.304 317.457 360.198C318.922 358.49 320.938 357.347 323.156 356.967Z" fill="#AA6550"/>
<path d="M333.906 333.354C333.906 333.496 332.522 333.354 330.942 333.754C329.362 334.153 328.279 334.97 328.154 334.854C328.888 334.108 329.811 333.575 330.823 333.311C331.836 333.047 332.902 333.062 333.906 333.354Z" fill="#AA6550"/>
<g clip-path="url(#clip6_1075_71755)">
<path d="M182.473 35.0064C182.617 35.4703 182.392 35.9819 182.213 36.2629C181.903 36.7486 181.386 37.3773 180.524 37.5056C180.083 37.578 179.641 37.5252 179.263 37.355C178.793 37.1473 178.41 36.6666 178.266 36.2006C178.041 35.4749 178.267 35.1105 178.446 34.8292C178.764 34.3284 179.545 33.6766 180.175 33.5667C180.616 33.4882 181.06 33.5414 181.435 33.7175C181.896 33.9206 182.294 34.4263 182.473 35.0064ZM181.382 35.3501C181.152 34.6212 180.442 33.6846 179.835 33.8726C179.451 33.9914 179.037 34.7098 179.359 35.8554C179.582 36.5936 180.28 37.4448 180.882 37.2583C181.336 37.1228 181.701 36.4906 181.381 35.348L181.382 35.3501Z" fill="white"/>
<path d="M186.921 33.6314C187.064 34.0953 186.839 34.6069 186.66 34.8879C186.35 35.3736 185.833 36.0023 184.97 36.1308C184.53 36.2031 184.088 36.1502 183.711 35.98C183.241 35.7723 182.857 35.2916 182.713 34.8256C182.488 34.0999 182.715 33.7355 182.893 33.4542C183.212 32.9534 183.992 32.3016 184.622 32.1917C185.063 32.1132 185.507 32.1664 185.882 32.3425C186.343 32.5456 186.741 33.0513 186.921 33.6314ZM185.829 33.9751C185.6 33.2462 184.889 32.3096 184.282 32.4976C183.898 32.6166 183.484 33.3348 183.806 34.4804C184.029 35.2186 184.727 36.0698 185.33 35.8833C185.784 35.7478 186.149 35.1156 185.828 33.973L185.829 33.9751Z" fill="white"/>
<path d="M187.822 31.5372L188.568 33.9476L189.031 34.7956L189.057 34.8806C188.554 35.1631 187.866 35.1285 187.64 34.4002L186.847 31.839L186.36 31.9899L186.319 31.8582C186.572 31.7799 187.099 31.4072 187.385 30.5365L187.501 30.5005L187.774 31.3817L188.444 31.1743L188.492 31.3298L187.822 31.5372Z" fill="white"/>
<path d="M192.814 32.5228L193.028 32.5396C192.975 32.6857 192.906 32.828 192.82 32.9641C192.51 33.4498 191.993 34.0792 191.13 34.207C190.69 34.2797 190.248 34.2267 189.871 34.0562C189.4 33.8486 189.018 33.3677 188.873 32.9022C188.648 32.1739 188.875 31.8117 189.054 31.5308C189.372 31.0301 190.152 30.3779 190.783 30.2678C191.223 30.1899 191.667 30.2431 192.042 30.4187C192.232 30.5029 192.806 30.8349 193.05 31.6233L189.978 32.5746C190.724 33.8773 192.551 33.3383 192.814 32.5228ZM189.891 32.3742L191.881 31.7579C191.477 30.7307 190.813 30.4323 190.338 30.6163C189.795 30.8265 189.527 31.6109 189.891 32.3742Z" fill="white"/>
<path d="M197.803 32.0832C197.713 32.1113 197.625 31.9747 197.543 31.7782C197.475 31.6169 197.34 31.2353 197.34 31.2353L196.649 28.7858L196.203 27.3468L195.244 27.9126L195.73 29.4571C195.512 29.3542 195.088 29.1247 194.62 29.206C193.636 29.3785 193.012 30.4241 193.368 31.5739C193.708 32.6702 194.733 32.964 195.389 32.8795C195.656 32.8416 195.91 32.7293 196.112 32.5596L196.617 32.1462C196.609 32.1524 196.699 32.2083 196.704 32.2134C196.929 32.3541 197.214 32.315 197.483 32.2487C197.599 32.2201 197.71 32.1761 197.813 32.1183L197.803 32.0832ZM195.927 32.4704C195.83 32.5345 195.719 32.5788 195.603 32.5996C195.251 32.6519 194.967 32.3989 194.799 32.1794C194.597 31.9022 194.446 31.5961 194.351 31.2712C194.182 30.7238 193.922 29.6853 194.709 29.4414C195.019 29.3455 195.585 29.6282 195.776 29.7324C195.777 29.7356 195.784 29.7363 195.744 29.7522L196.44 31.785L196.488 31.9405C196.483 31.9476 196.481 31.9556 196.481 31.9636C196.481 31.9715 196.483 31.9791 196.488 31.9854C196.496 32.0108 196.147 32.3012 196.106 32.3368C196.05 32.385 195.99 32.4297 195.927 32.4704Z" fill="white"/>
<path d="M177.947 37.0244C177.361 36.666 176.574 36.3468 175.844 36.4018C176.486 35.9957 177.329 35.295 177.096 34.5408C176.756 33.4439 175.216 33.6237 174.32 33.9012L172.568 34.4434L172.615 34.5926C172.704 34.5649 173.067 35.5779 173.442 36.7223C173.481 36.8414 173.551 36.9484 173.648 37.035C173.745 37.1216 173.866 37.1853 174.001 37.2212C174.26 37.2806 174.531 37.3044 174.805 37.292C175.329 37.2804 175.931 37.2612 176.424 37.4055C176.989 37.5715 177.393 38.0115 177.731 38.413L178.996 38.0215C178.713 37.638 178.359 37.3015 177.947 37.0244ZM174.7 36.585L173.973 34.2358C173.973 34.2358 175.514 33.6076 175.909 34.8859C176.333 36.2317 174.7 36.585 174.7 36.585Z" fill="white"/>
<path d="M174.943 38.3215C174.887 38.2238 174.808 38.1383 174.712 38.0698L174.185 37.6348L174.063 37.6725L173.874 38.3293C173.833 38.4402 173.817 38.555 173.826 38.6674C173.892 39.0963 174.539 39.2986 174.644 39.3355C174.711 39.2454 175.133 38.7121 174.943 38.3215Z" fill="white"/>
</g>
<path d="M44.4907 325.783C47.1005 328.89 51.5122 327.39 53.4207 325.18C55.3292 322.969 55.9506 319.969 56.5099 317.102C57.7704 310.551 59.0309 303.689 57.078 297.307C56.5741 295.364 55.5453 293.599 54.1043 292.202C53.3749 291.518 52.4785 291.037 51.5048 290.808C50.5311 290.579 49.5143 290.61 48.5563 290.898C46.3371 291.696 45.121 294.049 44.2954 296.224C41.8481 302.735 40.8837 309.709 41.4726 316.64C41.7478 319.871 42.4313 323.218 44.4907 325.721" fill="#197A8A"/>
<g opacity="0.2">
<path d="M44.4888 325.783C47.0985 328.89 51.5103 327.39 53.4188 325.179C55.3273 322.969 55.9487 319.969 56.5079 317.102C57.7684 310.551 59.0289 303.689 57.076 297.306C56.5722 295.364 55.5433 293.598 54.1023 292.202C53.373 291.518 52.4765 291.037 51.5028 290.808C50.5291 290.579 49.5123 290.61 48.5543 290.897C46.3351 291.696 45.119 294.049 44.2935 296.224C41.8461 302.734 40.8818 309.709 41.4707 316.64C41.7459 319.871 42.4294 323.218 44.4888 325.721" fill="black"/>
</g>
<path d="M54.6715 341.789C58.2932 339.49 62.7405 338.833 67.0102 339.126C69.3093 339.303 71.7238 339.765 73.4192 341.327C75.1147 342.89 75.6651 345.855 74.0317 347.47C72.9601 348.345 71.6157 348.816 70.2325 348.802C66.9303 349.059 63.2198 348.802 60.7699 351.03C59.3673 352.29 58.5329 354.261 56.7842 354.98C55.9043 355.267 54.955 355.26 54.0792 354.961C53.2035 354.661 52.4487 354.085 51.9286 353.32C50.9211 351.74 50.5618 349.832 50.9255 347.994C51.0329 346.742 51.4265 345.531 52.076 344.455C52.7255 343.379 53.6135 342.467 54.6715 341.789Z" fill="#197A8A"/>
<path d="M38.5418 331.11C40.7965 327.896 40.8852 323.493 39.4294 319.845C37.9736 316.197 35.1508 313.25 32.0085 310.906C28.2888 308.152 24.0675 306.15 19.581 305.012C17.839 304.487 16.0046 304.342 14.2017 304.586C13.3166 304.733 12.4796 305.09 11.7613 305.627C11.043 306.165 10.4643 306.867 10.074 307.675C9.05317 310.143 10.4912 312.903 11.9825 315.123C14.6063 319.036 17.5296 322.74 20.7261 326.201C23.3092 328.979 26.2297 331.687 29.878 332.725C33.5264 333.764 37.1747 333.267 38.8347 330.657" fill="#197A8A"/>
<path d="M48.7948 375.767C48.8713 375.262 48.8951 374.751 48.8659 374.241C48.8659 373.14 48.8659 371.755 48.8659 370.104C48.8889 368.06 49.0193 366.018 49.2564 363.988C49.5761 361.515 50.0956 359.072 50.8099 356.682C51.5011 354.297 52.5293 352.022 53.8635 349.927C54.9491 348.22 56.4017 346.777 58.1154 345.702C59.2767 344.988 60.5442 344.464 61.8703 344.148C62.3736 344.076 62.8696 343.961 63.3527 343.802C62.8414 343.778 62.329 343.814 61.8259 343.909C60.4394 344.144 59.1053 344.622 57.8846 345.32C56.0753 346.385 54.5354 347.852 53.3841 349.608C51.9943 351.739 50.9237 354.063 50.2062 356.505C49.4849 358.93 48.9741 361.413 48.6794 363.926C48.472 365.975 48.3861 368.035 48.422 370.095C48.422 371.87 48.5285 373.273 48.5907 374.249C48.6003 374.762 48.6689 375.271 48.7948 375.767Z" fill="#263238"/>
<path d="M48.795 372.581C48.8186 372.348 48.8186 372.113 48.795 371.88C48.795 371.356 48.6885 370.69 48.6175 369.882C48.4577 368.151 48.2358 365.639 48.0494 362.532C47.6499 356.319 47.4191 347.726 47.6055 338.237C47.7919 328.747 48.4222 320.164 49.1412 313.985C49.301 312.432 49.4697 311.038 49.6472 309.813C49.8247 308.588 49.949 307.532 50.091 306.68C50.2331 305.828 50.3041 305.215 50.384 304.691C50.4307 304.461 50.4515 304.226 50.4461 303.99C50.3525 304.208 50.2898 304.438 50.2597 304.674C50.1532 305.189 50.02 305.837 49.8514 306.635C49.6827 307.434 49.4963 308.544 49.301 309.769C49.1057 310.994 48.8927 312.379 48.6974 313.932C47.6916 321.994 47.1197 330.104 46.9842 338.228C46.7978 347.735 47.0907 356.354 47.6055 362.568C47.8452 365.675 48.1381 368.187 48.3778 369.909C48.4932 370.717 48.5997 371.374 48.6707 371.897C48.6886 372.129 48.7302 372.358 48.795 372.581Z" fill="#263238"/>
<path d="M47.3574 356.035C47.3491 355.335 47.2838 354.637 47.1621 353.949C46.9579 352.617 46.6028 350.7 46.017 348.356C45.3094 345.621 44.45 342.927 43.4427 340.287C42.2294 337.044 40.7878 333.891 39.1286 330.851C36.214 325.242 32.3038 320.21 27.5888 316C26.7672 315.285 25.9047 314.618 25.0057 314.003C24.6151 313.728 24.2689 313.453 23.9139 313.24L22.9374 312.68C22.3428 312.314 21.7228 311.991 21.0822 311.713C20.9934 311.855 23.7452 313.151 27.2959 316.338C31.8656 320.597 35.6751 325.604 38.5605 331.144C40.2142 334.15 41.6701 337.26 42.919 340.456C44.0907 343.403 44.9429 346.128 45.582 348.445C46.2211 350.762 46.6383 352.653 46.9135 353.966C47.0047 354.667 47.1531 355.358 47.3574 356.035Z" fill="#263238"/>
<defs>
<clipPath id="clip0_1075_71755">
<rect width="57.793" height="14.4483" fill="white" transform="translate(39.9883 143.732) rotate(10.8916)"/>
</clipPath>
<clipPath id="clip1_1075_71755">
<rect width="39.4507" height="9.86266" fill="white" transform="translate(106.348 81.324) rotate(-6.10059)"/>
</clipPath>
<clipPath id="clip2_1075_71755">
<rect width="25.1177" height="6.27941" fill="white" transform="translate(58.6699 16.2773) rotate(35.5661)"/>
</clipPath>
<clipPath id="clip3_1075_71755">
<rect width="50.0734" height="10.9536" fill="white" transform="translate(130.797 221.352) rotate(-3.42591)"/>
</clipPath>
<clipPath id="clip4_1075_71755">
<rect width="59.0847" height="14.7712" fill="white" transform="translate(224.006 332.576) rotate(-4.06151)"/>
</clipPath>
<clipPath id="clip5_1075_71755">
<rect width="46.5638" height="11.6409" fill="white" transform="translate(222.236 270.924) rotate(-2.66758)"/>
</clipPath>
<clipPath id="clip6_1075_71755">
<rect width="24.8549" height="5.32605" fill="white" transform="translate(172.52 34.457) rotate(-17.2033)"/>
</clipPath>
</defs>
</svg>
