<svg width="1064" height="997" viewBox="0 0 1064 997" fill="none" xmlns="http://www.w3.org/2000/svg">
<path opacity="0.5" fill-rule="evenodd" clip-rule="evenodd" d="M0 0C21.8186 0.366791 233.702 132.497 294.98 193.897C321.585 220.554 342.795 255.722 349.294 318.401C351.245 337.21 350.269 358.631 349.214 381.775C347.779 413.278 346.198 447.975 351.653 483.628C361.243 616.277 475.259 721 614.5 721C643.776 721 675.436 722.947 707.338 724.909C719.874 725.68 732.448 726.453 744.928 727.111C764.417 731.188 786.876 736.835 813.521 744.786C960.798 792.019 1033.78 936.663 1059.73 988.099C1061.33 991.268 1062.75 994.083 1064 996.5V0H0Z" fill="#F6D6BD"/>
</svg>
