<svg width="892" height="1135" viewBox="0 0 892 1135" fill="none" xmlns="http://www.w3.org/2000/svg">
<path opacity="0.5" d="M645.851 1108.62C659.041 1117.46 741.033 1168.86 726.969 1096.17C719.815 1059.19 738.893 1018.07 768.549 962.473C777.448 945.788 790.233 928.574 804.048 909.975C822.852 884.658 843.562 856.774 858.973 824.163C925.186 708.823 889.206 558.252 773.762 480.402C749.49 464.034 724.329 444.718 698.976 425.255C689.013 417.607 679.022 409.937 669.043 402.414C655.164 388.137 639.7 370.898 622.054 349.407C526.355 227.903 546.717 67.1746 553.958 10.0193C554.404 6.49795 554.8 3.36974 555.117 0.668091L0.456055 828.541L645.851 1108.62Z" fill="#F6D6BD"/>
</svg>
