<svg width="43" height="44" viewBox="0 0 43 44" fill="none" xmlns="http://www.w3.org/2000/svg">
<rect y="0.383301" width="43" height="42.9541" rx="21.477" fill="white"/>
<path d="M30.5639 18.1391C30.553 17.3167 30.399 16.5025 30.1089 15.7329C29.8574 15.0837 29.4732 14.4941 28.9809 14.0018C28.4886 13.5095 27.8991 13.1254 27.2499 12.8738C26.4901 12.5886 25.6875 12.4344 24.8762 12.4178C23.8316 12.3711 23.5004 12.358 20.8487 12.358C18.1971 12.358 17.8572 12.358 16.8202 12.4178C16.0092 12.4345 15.207 12.5887 14.4476 12.8738C13.7983 13.1252 13.2087 13.5093 12.7163 14.0016C12.224 14.4939 11.8399 15.0836 11.5885 15.7329C11.3028 16.492 11.1489 17.2945 11.1336 18.1055C11.0869 19.1512 11.0728 19.4824 11.0728 22.134C11.0728 24.7857 11.0728 25.1245 11.1336 26.1626C11.1498 26.9748 11.303 27.7761 11.5885 28.5373C11.8403 29.1864 12.2247 29.7758 12.7172 30.2679C13.2097 30.76 13.7994 31.144 14.4487 31.3953C15.206 31.692 16.0084 31.8572 16.8213 31.8839C17.867 31.9306 18.1982 31.9447 20.8498 31.9447C23.5015 31.9447 23.8414 31.9447 24.8784 31.8839C25.6897 31.868 26.4923 31.7141 27.252 31.429C27.9011 31.1771 28.4905 30.7928 28.9827 30.3006C29.475 29.8083 29.8593 29.2189 30.1111 28.5699C30.3967 27.8098 30.5498 27.0084 30.5661 26.1951C30.6128 25.1505 30.6269 24.8193 30.6269 22.1666C30.6247 19.5149 30.6247 19.1783 30.5639 18.1391ZM20.8422 27.1485C18.0689 27.1485 15.8223 24.9019 15.8223 22.1286C15.8223 19.3553 18.0689 17.1087 20.8422 17.1087C22.1736 17.1087 23.4504 17.6375 24.3918 18.579C25.3333 19.5204 25.8621 20.7972 25.8621 22.1286C25.8621 23.46 25.3333 24.7368 24.3918 25.6782C23.4504 26.6196 22.1736 27.1485 20.8422 27.1485ZM26.0619 18.0935C25.9082 18.0937 25.7559 18.0635 25.6138 18.0047C25.4717 17.946 25.3426 17.8597 25.2339 17.751C25.1252 17.6423 25.039 17.5132 24.9802 17.3711C24.9214 17.229 24.8912 17.0767 24.8914 16.923C24.8914 16.7693 24.9217 16.6172 24.9805 16.4752C25.0393 16.3333 25.1254 16.2043 25.2341 16.0957C25.3427 15.987 25.4717 15.9008 25.6137 15.842C25.7556 15.7832 25.9078 15.753 26.0614 15.753C26.2151 15.753 26.3672 15.7832 26.5091 15.842C26.6511 15.9008 26.7801 15.987 26.8887 16.0957C26.9974 16.2043 27.0836 16.3333 27.1424 16.4752C27.2012 16.6172 27.2314 16.7693 27.2314 16.923C27.2314 17.5702 26.708 18.0935 26.0619 18.0935Z" fill="#197A8A"/>
<path d="M20.8421 25.3895C22.643 25.3895 24.103 23.9295 24.103 22.1286C24.103 20.3277 22.643 18.8678 20.8421 18.8678C19.0412 18.8678 17.5813 20.3277 17.5813 22.1286C17.5813 23.9295 19.0412 25.3895 20.8421 25.3895Z" fill="#197A8A"/>
</svg>
