<svg width="43" height="43" viewBox="0 0 43 43" fill="none" xmlns="http://www.w3.org/2000/svg">
<rect width="43" height="42.9541" rx="21.477" fill="white"/>
<path d="M29 12.6172C29.5304 12.6172 30.0391 12.8279 30.4142 13.203C30.7893 13.578 31 14.0868 31 14.6172V28.6172C31 29.1476 30.7893 29.6563 30.4142 30.0314C30.0391 30.4065 29.5304 30.6172 29 30.6172H15C14.4696 30.6172 13.9609 30.4065 13.5858 30.0314C13.2107 29.6563 13 29.1476 13 28.6172V14.6172C13 14.0868 13.2107 13.578 13.5858 13.203C13.9609 12.8279 14.4696 12.6172 15 12.6172H29ZM28.5 28.1172V22.8172C28.5 21.9526 28.1565 21.1234 27.5452 20.512C26.9338 19.9007 26.1046 19.5572 25.24 19.5572C24.39 19.5572 23.4 20.0772 22.92 20.8572V19.7472H20.13V28.1172H22.92V23.1872C22.92 22.4172 23.54 21.7872 24.31 21.7872C24.6813 21.7872 25.0374 21.9347 25.2999 22.1972C25.5625 22.4598 25.71 22.8159 25.71 23.1872V28.1172H28.5ZM16.88 18.1772C17.3256 18.1772 17.7529 18.0002 18.0679 17.6851C18.383 17.3701 18.56 16.9428 18.56 16.4972C18.56 15.5672 17.81 14.8072 16.88 14.8072C16.4318 14.8072 16.0019 14.9852 15.685 15.3022C15.3681 15.6191 15.19 16.049 15.19 16.4972C15.19 17.4272 15.95 18.1772 16.88 18.1772ZM18.27 28.1172V19.7472H15.5V28.1172H18.27Z" fill="#197A8A"/>
</svg>
