<svg width="43" height="43" viewBox="0 0 43 43" fill="none" xmlns="http://www.w3.org/2000/svg">
<rect width="43" height="42.9541" rx="21.477" fill="white"/>
<path d="M19.6 25.4286L25.828 22L19.6 18.5714V25.4286ZM33.472 16.48C33.628 17.0171 33.736 17.7371 33.808 18.6514C33.892 19.5657 33.928 20.3543 33.928 21.04L34 22C34 24.5029 33.808 26.3429 33.472 27.52C33.172 28.5486 32.476 29.2114 31.396 29.4971C30.832 29.6457 29.8 29.7486 28.216 29.8171C26.656 29.8971 25.228 29.9314 23.908 29.9314L22 30C16.972 30 13.84 29.8171 12.604 29.4971C11.524 29.2114 10.828 28.5486 10.528 27.52C10.372 26.9829 10.264 26.2629 10.192 25.3486C10.108 24.4343 10.072 23.6457 10.072 22.96L10 22C10 19.4971 10.192 17.6571 10.528 16.48C10.828 15.4514 11.524 14.7886 12.604 14.5029C13.168 14.3543 14.2 14.2514 15.784 14.1829C17.344 14.1029 18.772 14.0686 20.092 14.0686L22 14C27.028 14 30.16 14.1829 31.396 14.5029C32.476 14.7886 33.172 15.4514 33.472 16.48Z" fill="#197A8A"/>
</svg>
